  0
SECTION
  2
HEADER
  9
$MEASUREMENT
  70
  1
  9
$INSUNITS
  70
  4
  0
ENDSEC
  0
SECTION
  2
TABLES
  0
TABLE
  2
LTYPE
 70
     1
  0
LTYPE
  2
CONTINUOUS
 70
    64
  3
Ausgezogene Linie
 72
    65
 73
     0
 40
0.0
  0
ENDTAB
  0
TABLE
  2
LAYER
 70
     3
  0
LAYER
  2
Kontur
 70
    64
 62
     7
  6
CONTINUOUS
  0
LAYER
  2
Gravur
 70
    64
 62
     7
  6
CONTINUOUS
  0
LAYER
  2
Bezugspunkte
 70
    64
 62
     1
  6
CONTINUOUS
  0
ENDTAB
  0
TABLE
  2
STYLE
 70
     1
  0
STYLE
  2
TXT
 70
    64
 40
0.0
 41
1.0
 50
0.0
 71
     0
 42
3.500000
  3
TXT
  0
ENDTAB
  0
ENDSEC
  0
SECTION
  2
BLOCKS
  0
ENDSEC
  0
SECTION
  2
ENTITIES
  0
LINE
  8
Kontur
 62
   7
 39
0.100
  6
CONTINUOUS
 10
60.62000
 20
128.40000
 30
 0
 11
60.62000
 21
0.00000
  0
LINE
  8
Kontur
 62
   7
 39
0.100
  6
CONTINUOUS
 10
60.62000
 20
0.00000
 30
 0
 11
0.00000
 21
0.00000
  0
LINE
  8
Kontur
 62
   7
 39
0.100
  6
CONTINUOUS
 10
0.00000
 20
0.00000
 30
 0
 11
0.00000
 21
128.40000
  0
LINE
  8
Kontur
 62
   7
 39
0.100
  6
CONTINUOUS
 10
0.00000
 20
128.40000
 30
 0
 11
60.62000
 21
128.40000
  0
ARC
  8
Kontur
 62
   7
 39
0.100
  6
CONTINUOUS
 10
0.35355
 20
0.35355
 30
 0
 40
0.50000
 50
135.00000
 51
314.99999
  0
LINE
  8
Kontur
 62
   7
 39
0.100
  6
CONTINUOUS
 10
0.70711
 20
0.00000
 30
 0
 11
59.91289
 21
0.00000
  0
ARC
  8
Kontur
 62
   7
 39
0.100
  6
CONTINUOUS
 10
60.26645
 20
0.35355
 30
 0
 40
0.50000
 50
225.00000
 51
404.99999
  0
LINE
  8
Kontur
 62
   7
 39
0.100
  6
CONTINUOUS
 10
60.62000
 20
0.70711
 30
 0
 11
60.62000
 21
5.29289
  0
ARC
  8
Kontur
 62
   7
 39
0.100
  6
CONTINUOUS
 10
60.26645
 20
5.64645
 30
 0
 40
0.50000
 50
315.00000
 51
494.99999
  0
LINE
  8
Kontur
 62
   7
 39
0.100
  6
CONTINUOUS
 10
59.91289
 20
6.00000
 30
 0
 11
0.70711
 21
6.00000
  0
ARC
  8
Kontur
 62
   7
 39
0.100
  6
CONTINUOUS
 10
0.35355
 20
5.64645
 30
 0
 40
0.50000
 50
45.00000
 51
224.99999
  0
LINE
  8
Kontur
 62
   7
 39
0.100
  6
CONTINUOUS
 10
0.00000
 20
5.29289
 30
 0
 11
0.00000
 21
0.70711
  0
ARC
  8
Kontur
 62
   7
 39
0.100
  6
CONTINUOUS
 10
0.35355
 20
122.74855
 30
 0
 40
0.50000
 50
135.00000
 51
314.99999
  0
LINE
  8
Kontur
 62
   7
 39
0.100
  6
CONTINUOUS
 10
0.70711
 20
122.39500
 30
 0
 11
59.91289
 21
122.39500
  0
ARC
  8
Kontur
 62
   7
 39
0.100
  6
CONTINUOUS
 10
60.26645
 20
122.74855
 30
 0
 40
0.50000
 50
225.00000
 51
404.99999
  0
LINE
  8
Kontur
 62
   7
 39
0.100
  6
CONTINUOUS
 10
60.62000
 20
123.10211
 30
 0
 11
60.62000
 21
127.68789
  0
ARC
  8
Kontur
 62
   7
 39
0.100
  6
CONTINUOUS
 10
60.26645
 20
128.04145
 30
 0
 40
0.50000
 50
315.00000
 51
494.99999
  0
LINE
  8
Kontur
 62
   7
 39
0.100
  6
CONTINUOUS
 10
59.91289
 20
128.39500
 30
 0
 11
0.70711
 21
128.39500
  0
ARC
  8
Kontur
 62
   7
 39
0.100
  6
CONTINUOUS
 10
0.35355
 20
128.04145
 30
 0
 40
0.50000
 50
45.00000
 51
224.99999
  0
LINE
  8
Kontur
 62
   7
 39
0.100
  6
CONTINUOUS
 10
0.00000
 20
127.68789
 30
 0
 11
0.00000
 21
123.10211
  0
LINE
  8
Gravur
 62
   255
 39
0.400
  6
CONTINUOUS
 10
11.92133
 20
119.65333
 30
 0
 11
13.83800
 21
119.65333
  0
LINE
  8
Gravur
 62
   255
 39
0.400
  6
CONTINUOUS
 10
11.53800
 20
118.69500
 30
 0
 11
12.87967
 21
122.14500
  0
LINE
  8
Gravur
 62
   255
 39
0.400
  6
CONTINUOUS
 10
12.87967
 20
122.14500
 30
 0
 11
14.22133
 21
118.69500
  0
LINE
  8
Gravur
 62
   255
 39
0.400
  6
CONTINUOUS
 10
15.14200
 20
118.69500
 30
 0
 11
15.14200
 21
120.99500
  0
LINE
  8
Gravur
 62
   255
 39
0.400
  6
CONTINUOUS
 10
15.14200
 20
120.99500
 30
 0
 11
15.14200
 21
120.03667
  0
ARC
  8
Gravur
 62
   255
 39
0.400
  6
CONTINUOUS
 10
16.10033
 20
120.03667
 30
 0
 40
0.95833
 50
0.00000
 51
180.00000
  0
LINE
  8
Gravur
 62
   255
 39
0.400
  6
CONTINUOUS
 10
17.05867
 20
120.03667
 30
 0
 11
17.05867
 21
118.69500
  0
LINE
  8
Gravur
 62
   255
 39
0.400
  6
CONTINUOUS
 10
17.97900
 20
119.65233
 30
 0
 11
17.97900
 21
120.03567
  0
ARC
  8
Gravur
 62
   255
 39
0.400
  6
CONTINUOUS
 10
18.93733
 20
120.03567
 30
 0
 40
0.95833
 50
0.00000
 51
180.00000
  0
LINE
  8
Gravur
 62
   255
 39
0.400
  6
CONTINUOUS
 10
19.89567
 20
120.03567
 30
 0
 11
19.89567
 21
119.65233
  0
ARC
  8
Gravur
 62
   255
 39
0.400
  6
CONTINUOUS
 10
18.93733
 20
119.65233
 30
 0
 40
0.95833
 50
-180.00000
 51
0.00000
  0
LINE
  8
Gravur
 62
   255
 39
0.400
  6
CONTINUOUS
 10
20.81600
 20
122.14400
 30
 0
 11
20.81600
 21
121.95233
  0
LINE
  8
Gravur
 62
   255
 39
0.400
  6
CONTINUOUS
 10
20.81600
 20
120.99400
 30
 0
 11
20.81600
 21
118.69400
  0
LINE
  8
Gravur
 62
   255
 39
0.400
  6
CONTINUOUS
 10
21.73600
 20
122.14400
 30
 0
 11
21.73600
 21
118.69400
  0
LINE
  8
Gravur
 62
   255
 39
0.400
  6
CONTINUOUS
 10
21.73600
 20
118.69400
 30
 0
 11
21.73600
 21
119.46067
  0
LINE
  8
Gravur
 62
   255
 39
0.400
  6
CONTINUOUS
 10
21.73600
 20
119.46067
 30
 0
 11
23.65267
 21
120.99400
  0
LINE
  8
Gravur
 62
   255
 39
0.400
  6
CONTINUOUS
 10
23.65267
 20
120.99400
 30
 0
 11
22.50267
 21
120.07400
  0
LINE
  8
Gravur
 62
   255
 39
0.400
  6
CONTINUOUS
 10
22.50267
 20
120.07400
 30
 0
 11
23.65267
 21
118.69400
  0
LINE
  8
Gravur
 62
   255
 39
0.400
  6
CONTINUOUS
 10
24.57300
 20
122.14400
 30
 0
 11
24.57300
 21
121.95233
  0
LINE
  8
Gravur
 62
   255
 39
0.400
  6
CONTINUOUS
 10
24.57300
 20
120.99400
 30
 0
 11
24.57300
 21
118.69400
  0
ARC
  8
Gravur
 62
   255
 39
0.400
  6
CONTINUOUS
 10
26.36361
 20
119.96934
 30
 0
 40
1.30242
 50
228.05192
 51
293.02344
  0
ARC
  8
Gravur
 62
   255
 39
0.400
  6
CONTINUOUS
 10
26.68127
 20
119.22348
 30
 0
 40
0.49173
 50
292.94873
 51
431.82316
  0
LINE
  8
Gravur
 62
   255
 39
0.400
  6
CONTINUOUS
 10
26.83467
 20
119.69067
 30
 0
 11
25.79967
 21
120.03567
  0
ARC
  8
Gravur
 62
   255
 39
0.400
  6
CONTINUOUS
 10
25.93774
 20
120.45497
 30
 0
 40
0.44145
 50
119.10762
 51
251.77304
  0
ARC
  8
Gravur
 62
   255
 39
0.400
  6
CONTINUOUS
 10
26.39113
 20
119.65845
 30
 0
 40
1.35795
 50
54.50145
 51
119.47297
  0
LINE
  8
Gravur
 62
   255
 39
0.400
  6
CONTINUOUS
 10
30.55300
 20
118.69400
 30
 0
 11
30.55300
 21
122.14400
  0
LINE
  8
Gravur
 62
   255
 39
0.400
  6
CONTINUOUS
 10
30.55300
 20
122.14400
 30
 0
 11
32.85300
 21
118.69400
  0
LINE
  8
Gravur
 62
   255
 39
0.400
  6
CONTINUOUS
 10
32.85300
 20
118.69400
 30
 0
 11
32.85300
 21
122.14400
  0
LINE
  8
Gravur
 62
   255
 39
0.400
  6
CONTINUOUS
 10
33.77300
 20
119.65233
 30
 0
 11
33.77300
 21
120.03567
  0
ARC
  8
Gravur
 62
   255
 39
0.400
  6
CONTINUOUS
 10
34.73133
 20
120.03567
 30
 0
 40
0.95833
 50
0.00000
 51
180.00000
  0
LINE
  8
Gravur
 62
   255
 39
0.400
  6
CONTINUOUS
 10
35.68967
 20
120.03567
 30
 0
 11
35.68967
 21
119.65233
  0
ARC
  8
Gravur
 62
   255
 39
0.400
  6
CONTINUOUS
 10
34.73133
 20
119.65233
 30
 0
 40
0.95833
 50
-180.00000
 51
0.00000
  0
LINE
  8
Gravur
 62
   255
 39
0.400
  6
CONTINUOUS
 10
36.60900
 20
118.69400
 30
 0
 11
36.60900
 21
120.99400
  0
LINE
  8
Gravur
 62
   255
 39
0.400
  6
CONTINUOUS
 10
36.60900
 20
120.99400
 30
 0
 11
36.60900
 21
120.22733
  0
ARC
  8
Gravur
 62
   255
 39
0.400
  6
CONTINUOUS
 10
37.37567
 20
120.22733
 30
 0
 40
0.76667
 50
0.00000
 51
180.00000
  0
LINE
  8
Gravur
 62
   255
 39
0.400
  6
CONTINUOUS
 10
38.14233
 20
120.22733
 30
 0
 11
38.14233
 21
118.69400
  0
LINE
  8
Gravur
 62
   255
 39
0.400
  6
CONTINUOUS
 10
38.14233
 20
118.69400
 30
 0
 11
38.14233
 21
120.22733
  0
ARC
  8
Gravur
 62
   255
 39
0.400
  6
CONTINUOUS
 10
38.90900
 20
120.22733
 30
 0
 40
0.76667
 50
0.00000
 51
180.00000
  0
LINE
  8
Gravur
 62
   255
 39
0.400
  6
CONTINUOUS
 10
39.67567
 20
120.22733
 30
 0
 11
39.67567
 21
118.69400
  0
LINE
  8
Gravur
 62
   255
 39
0.400
  6
CONTINUOUS
 10
42.58833
 20
120.99300
 30
 0
 11
42.58833
 21
119.65133
  0
ARC
  8
Gravur
 62
   255
 39
0.400
  6
CONTINUOUS
 10
41.59167
 20
119.65133
 30
 0
 40
0.99667
 50
-180.00000
 51
0.00000
  0
LINE
  8
Gravur
 62
   255
 39
0.400
  6
CONTINUOUS
 10
40.59500
 20
119.65133
 30
 0
 11
40.59500
 21
120.03467
  0
ARC
  8
Gravur
 62
   255
 39
0.400
  6
CONTINUOUS
 10
41.59167
 20
120.03467
 30
 0
 40
0.99667
 50
0.00000
 51
180.00000
  0
LINE
  8
Gravur
 62
   255
 39
0.400
  6
CONTINUOUS
 10
42.58833
 20
120.03467
 30
 0
 11
42.58833
 21
119.11467
  0
ARC
  8
Gravur
 62
   255
 39
0.400
  6
CONTINUOUS
 10
43.14411
 20
119.16621
 30
 0
 40
0.55816
 50
185.29897
 51
260.11981
  0
LINE
  8
Gravur
 62
   255
 39
0.400
  6
CONTINUOUS
 10
45.88467
 20
122.14200
 30
 0
 11
45.88467
 21
119.65033
  0
ARC
  8
Gravur
 62
   255
 39
0.400
  6
CONTINUOUS
 10
44.92633
 20
119.61200
 30
 0
 40
0.95910
 50
-177.70939
 51
2.29061
  0
LINE
  8
Gravur
 62
   255
 39
0.400
  6
CONTINUOUS
 10
43.96800
 20
119.57367
 30
 0
 11
43.96800
 21
120.03367
  0
ARC
  8
Gravur
 62
   255
 39
0.400
  6
CONTINUOUS
 10
44.92633
 20
120.03367
 30
 0
 40
0.95833
 50
0.00000
 51
180.00000
  0
LINE
  8
Gravur
 62
   255
 39
0.400
  6
CONTINUOUS
 10
45.88467
 20
120.03367
 30
 0
 11
45.88467
 21
118.69200
  0
ARC
  8
Gravur
 62
   255
 39
0.400
  6
CONTINUOUS
 10
47.67461
 20
119.96634
 30
 0
 40
1.30242
 50
228.05192
 51
293.02344
  0
ARC
  8
Gravur
 62
   255
 39
0.400
  6
CONTINUOUS
 10
47.99227
 20
119.22048
 30
 0
 40
0.49173
 50
292.94873
 51
431.82316
  0
LINE
  8
Gravur
 62
   255
 39
0.400
  6
CONTINUOUS
 10
48.14567
 20
119.68767
 30
 0
 11
47.11067
 21
120.03267
  0
ARC
  8
Gravur
 62
   255
 39
0.400
  6
CONTINUOUS
 10
47.24874
 20
120.45197
 30
 0
 40
0.44145
 50
119.10762
 51
251.77304
  0
ARC
  8
Gravur
 62
   255
 39
0.400
  6
CONTINUOUS
 10
47.70213
 20
119.65545
 30
 0
 40
1.35795
 50
54.50145
 51
119.47297
  0
ARC
  8
Gravur
 62
   7
 39
0.600
  6
CONTINUOUS
 10
22.03600
 20
117.22000
 30
 0
 40
1.07500
 50
270.00000
 51
450.00000
  0
LINE
  8
Gravur
 62
   7
 39
0.600
  6
CONTINUOUS
 10
22.03600
 20
118.29500
 30
 0
 11
20.45933
 21
118.29500
  0
LINE
  8
Gravur
 62
   7
 39
0.600
  6
CONTINUOUS
 10
20.45933
 20
118.29500
 30
 0
 11
20.45933
 21
113.99500
  0
LINE
  8
Gravur
 62
   7
 39
0.600
  6
CONTINUOUS
 10
20.45933
 20
113.99500
 30
 0
 11
22.27489
 21
113.99500
  0
ARC
  8
Gravur
 62
   7
 39
0.600
  6
CONTINUOUS
 10
22.27489
 20
115.07000
 30
 0
 40
1.07500
 50
270.00000
 51
450.00000
  0
LINE
  8
Gravur
 62
   7
 39
0.600
  6
CONTINUOUS
 10
22.27489
 20
116.14500
 30
 0
 11
20.45933
 21
116.14500
  0
LINE
  8
Gravur
 62
   7
 39
0.600
  6
CONTINUOUS
 10
24.47333
 20
116.86167
 30
 0
 11
24.47333
 21
115.18944
  0
ARC
  8
Gravur
 62
   7
 39
0.600
  6
CONTINUOUS
 10
25.66778
 20
115.18944
 30
 0
 40
1.19444
 50
180.00000
 51
360.00000
  0
LINE
  8
Gravur
 62
   7
 39
0.600
  6
CONTINUOUS
 10
26.86222
 20
115.18944
 30
 0
 11
26.86222
 21
113.99500
  0
LINE
  8
Gravur
 62
   7
 39
0.600
  6
CONTINUOUS
 10
26.86222
 20
113.99500
 30
 0
 11
26.86222
 21
116.86167
  0
LINE
  8
Gravur
 62
   7
 39
0.600
  6
CONTINUOUS
 10
28.00933
 20
113.99400
 30
 0
 11
28.00933
 21
116.86067
  0
LINE
  8
Gravur
 62
   7
 39
0.600
  6
CONTINUOUS
 10
28.00933
 20
116.86067
 30
 0
 11
28.00933
 21
115.90511
  0
ARC
  8
Gravur
 62
   7
 39
0.600
  6
CONTINUOUS
 10
29.06514
 20
115.90514
 30
 0
 40
1.05581
 50
140.69073
 51
180.00162
  0
ARC
  8
Gravur
 62
   7
 39
0.600
  6
CONTINUOUS
 10
28.77378
 20
116.14193
 30
 0
 40
0.68036
 50
39.42406
 51
140.57594
  0
LINE
  8
Gravur
 62
   7
 39
0.600
  6
CONTINUOUS
 10
30.39833
 20
113.99400
 30
 0
 11
30.39833
 21
116.86067
  0
LINE
  8
Gravur
 62
   7
 39
0.600
  6
CONTINUOUS
 10
30.39833
 20
116.86067
 30
 0
 11
30.39833
 21
115.66622
  0
ARC
  8
Gravur
 62
   7
 39
0.600
  6
CONTINUOUS
 10
31.59278
 20
115.66622
 30
 0
 40
1.19444
 50
0.00000
 51
180.00000
  0
LINE
  8
Gravur
 62
   7
 39
0.600
  6
CONTINUOUS
 10
32.78722
 20
115.66622
 30
 0
 11
32.78722
 21
113.99400
  0
LINE
  8
Gravur
 62
   7
 39
0.600
  6
CONTINUOUS
 10
33.93333
 20
115.42633
 30
 0
 11
36.32222
 21
115.42633
  0
LINE
  8
Gravur
 62
   7
 39
0.600
  6
CONTINUOUS
 10
36.32222
 20
115.42633
 30
 0
 11
36.32222
 21
115.66522
  0
ARC
  8
Gravur
 62
   7
 39
0.600
  6
CONTINUOUS
 10
35.12778
 20
115.66522
 30
 0
 40
1.19444
 50
0.00000
 51
180.00000
  0
LINE
  8
Gravur
 62
   7
 39
0.600
  6
CONTINUOUS
 10
33.93333
 20
115.66522
 30
 0
 11
33.93333
 21
115.18744
  0
ARC
  8
Gravur
 62
   7
 39
0.600
  6
CONTINUOUS
 10
35.18589
 20
115.18644
 30
 0
 40
1.25256
 50
179.95424
 51
322.44599
  0
LINE
  8
Gravur
 62
   7
 39
0.600
  6
CONTINUOUS
 10
37.46833
 20
118.29200
 30
 0
 11
37.46833
 21
114.56533
  0
ARC
  8
Gravur
 62
   7
 39
0.600
  6
CONTINUOUS
 10
38.05103
 20
114.56517
 30
 0
 40
0.58270
 50
179.98432
 51
259.62682
  0
LINE
  8
Gravur
 62
   7
 39
0.600
  6
CONTINUOUS
 10
39.09233
 20
118.29200
 30
 0
 11
39.09233
 21
114.56533
  0
ARC
  8
Gravur
 62
   7
 39
0.600
  6
CONTINUOUS
 10
39.67503
 20
114.56517
 30
 0
 40
0.58270
 50
179.98432
 51
259.62682
  0
ARC
  8
Gravur
 62
   7
 39
0.200
  6
CONTINUOUS
 10
12.72544
 20
50.78133
 30
 0
 40
0.51278
 50
-90.00000
 51
90.00000
  0
ARC
  8
Gravur
 62
   7
 39
0.200
  6
CONTINUOUS
 10
12.72544
 20
50.78133
 30
 0
 40
0.51278
 50
90.00000
 51
270.00000
  0
ARC
  8
Gravur
 62
   7
 39
0.200
  6
CONTINUOUS
 10
12.72544
 20
51.70828
 30
 0
 40
0.41417
 50
270.00000
 51
450.00000
  0
ARC
  8
Gravur
 62
   7
 39
0.200
  6
CONTINUOUS
 10
12.72544
 20
51.70828
 30
 0
 40
0.41417
 50
90.00000
 51
270.00000
  0
LINE
  8
Gravur
 62
   7
 39
0.200
  6
CONTINUOUS
 10
13.88817
 20
52.08300
 30
 0
 11
13.88817
 21
51.49133
  0
LINE
  8
Gravur
 62
   7
 39
0.200
  6
CONTINUOUS
 10
13.88817
 20
51.49133
 30
 0
 11
14.18400
 21
51.49133
  0
LINE
  8
Gravur
 62
   7
 39
0.200
  6
CONTINUOUS
 10
14.18400
 20
51.49133
 30
 0
 11
13.69094
 21
51.49133
  0
LINE
  8
Gravur
 62
   7
 39
0.200
  6
CONTINUOUS
 10
13.69094
 20
51.49133
 30
 0
 11
13.88817
 21
51.49133
  0
LINE
  8
Gravur
 62
   7
 39
0.200
  6
CONTINUOUS
 10
13.88817
 20
51.49133
 30
 0
 11
13.88817
 21
50.54467
  0
ARC
  8
Gravur
 62
   7
 39
0.200
  6
CONTINUOUS
 10
14.12870
 20
50.54460
 30
 0
 40
0.24053
 50
179.98432
 51
259.62682
  0
LINE
  8
Gravur
 62
   7
 39
0.200
  6
CONTINUOUS
 10
14.65667
 20
52.08400
 30
 0
 11
14.65667
 21
50.30900
  0
LINE
  8
Gravur
 62
   7
 39
0.200
  6
CONTINUOUS
 10
14.65667
 20
50.30900
 30
 0
 11
14.65667
 21
50.99928
  0
ARC
  8
Gravur
 62
   7
 39
0.200
  6
CONTINUOUS
 10
15.14972
 20
50.99928
 30
 0
 40
0.49306
 50
0.00000
 51
180.00000
  0
LINE
  8
Gravur
 62
   7
 39
0.200
  6
CONTINUOUS
 10
15.64278
 20
50.99928
 30
 0
 11
15.64278
 21
50.30900
  0
ARC
  8
Gravur
 62
   7
 39
0.200
  6
CONTINUOUS
 10
16.56359
 20
50.96516
 30
 0
 40
0.67009
 50
228.05192
 51
293.02344
  0
ARC
  8
Gravur
 62
   7
 39
0.200
  6
CONTINUOUS
 10
16.72702
 20
50.58141
 30
 0
 40
0.25299
 50
292.94873
 51
431.82316
  0
LINE
  8
Gravur
 62
   7
 39
0.200
  6
CONTINUOUS
 10
16.80594
 20
50.82178
 30
 0
 11
16.27344
 21
50.99928
  0
ARC
  8
Gravur
 62
   7
 39
0.200
  6
CONTINUOUS
 10
16.34448
 20
51.21501
 30
 0
 40
0.22712
 50
119.10762
 51
251.77304
  0
ARC
  8
Gravur
 62
   7
 39
0.200
  6
CONTINUOUS
 10
16.57775
 20
50.80520
 30
 0
 40
0.69866
 50
54.50145
 51
119.47297
  0
LINE
  8
Gravur
 62
   7
 39
0.200
  6
CONTINUOUS
 10
12.23467
 20
39.38300
 30
 0
 11
12.23467
 21
38.10106
  0
ARC
  8
Gravur
 62
   7
 39
0.200
  6
CONTINUOUS
 10
12.72772
 20
38.10106
 30
 0
 40
0.49306
 50
180.00000
 51
360.00000
  0
LINE
  8
Gravur
 62
   7
 39
0.200
  6
CONTINUOUS
 10
13.22078
 20
38.10106
 30
 0
 11
13.22078
 21
38.29828
  0
ARC
  8
Gravur
 62
   7
 39
0.200
  6
CONTINUOUS
 10
12.72772
 20
38.29828
 30
 0
 40
0.49306
 50
0.00000
 51
180.00000
  0
LINE
  8
Gravur
 62
   7
 39
0.200
  6
CONTINUOUS
 10
12.23467
 20
38.29828
 30
 0
 11
12.23467
 21
37.60800
  0
LINE
  8
Gravur
 62
   7
 39
0.200
  6
CONTINUOUS
 10
13.69367
 20
38.20067
 30
 0
 11
14.67978
 21
38.20067
  0
LINE
  8
Gravur
 62
   7
 39
0.200
  6
CONTINUOUS
 10
14.67978
 20
38.20067
 30
 0
 11
14.67978
 21
38.29928
  0
ARC
  8
Gravur
 62
   7
 39
0.200
  6
CONTINUOUS
 10
14.18672
 20
38.29928
 30
 0
 40
0.49306
 50
0.00000
 51
180.00000
  0
LINE
  8
Gravur
 62
   7
 39
0.200
  6
CONTINUOUS
 10
13.69367
 20
38.29928
 30
 0
 11
13.69367
 21
38.10206
  0
ARC
  8
Gravur
 62
   7
 39
0.200
  6
CONTINUOUS
 10
14.21071
 20
38.10164
 30
 0
 40
0.51704
 50
179.95424
 51
322.44599
  0
LINE
  8
Gravur
 62
   7
 39
0.200
  6
CONTINUOUS
 10
16.17822
 20
38.79233
 30
 0
 11
16.17822
 21
38.10206
  0
ARC
  8
Gravur
 62
   7
 39
0.200
  6
CONTINUOUS
 10
15.66544
 20
38.10206
 30
 0
 40
0.51278
 50
-180.00000
 51
0.00000
  0
LINE
  8
Gravur
 62
   7
 39
0.200
  6
CONTINUOUS
 10
15.15267
 20
38.10206
 30
 0
 11
15.15267
 21
38.29928
  0
ARC
  8
Gravur
 62
   7
 39
0.200
  6
CONTINUOUS
 10
15.66544
 20
38.29928
 30
 0
 40
0.51278
 50
0.00000
 51
180.00000
  0
LINE
  8
Gravur
 62
   7
 39
0.200
  6
CONTINUOUS
 10
16.17822
 20
38.29928
 30
 0
 11
16.17822
 21
37.82594
  0
ARC
  8
Gravur
 62
   7
 39
0.200
  6
CONTINUOUS
 10
16.46416
 20
37.85247
 30
 0
 40
0.28717
 50
185.29897
 51
260.11981
  0
LINE
  8
Gravur
 62
   7
 39
0.200
  6
CONTINUOUS
 10
17.06517
 20
39.38500
 30
 0
 11
17.06517
 21
38.79333
  0
LINE
  8
Gravur
 62
   7
 39
0.200
  6
CONTINUOUS
 10
17.06517
 20
38.79333
 30
 0
 11
17.36100
 21
38.79333
  0
LINE
  8
Gravur
 62
   7
 39
0.200
  6
CONTINUOUS
 10
17.36100
 20
38.79333
 30
 0
 11
16.86794
 21
38.79333
  0
LINE
  8
Gravur
 62
   7
 39
0.200
  6
CONTINUOUS
 10
16.86794
 20
38.79333
 30
 0
 11
17.06517
 21
38.79333
  0
LINE
  8
Gravur
 62
   7
 39
0.200
  6
CONTINUOUS
 10
17.06517
 20
38.79333
 30
 0
 11
17.06517
 21
37.84667
  0
ARC
  8
Gravur
 62
   7
 39
0.200
  6
CONTINUOUS
 10
17.30570
 20
37.84660
 30
 0
 40
0.24053
 50
179.98432
 51
259.62682
  0
LINE
  8
Gravur
 62
   7
 39
0.200
  6
CONTINUOUS
 10
12.23467
 20
24.90800
 30
 0
 11
12.23467
 21
26.09133
  0
LINE
  8
Gravur
 62
   7
 39
0.200
  6
CONTINUOUS
 10
12.23467
 20
26.09133
 30
 0
 11
12.23467
 21
25.69689
  0
ARC
  8
Gravur
 62
   7
 39
0.200
  6
CONTINUOUS
 10
12.67049
 20
25.69690
 30
 0
 40
0.43583
 50
140.69073
 51
180.00162
  0
ARC
  8
Gravur
 62
   7
 39
0.200
  6
CONTINUOUS
 10
12.55022
 20
25.79465
 30
 0
 40
0.28085
 50
39.42406
 51
140.57594
  0
LINE
  8
Gravur
 62
   7
 39
0.200
  6
CONTINUOUS
 10
13.22067
 20
25.49967
 30
 0
 11
14.20678
 21
25.49967
  0
LINE
  8
Gravur
 62
   7
 39
0.200
  6
CONTINUOUS
 10
14.20678
 20
25.49967
 30
 0
 11
14.20678
 21
25.59828
  0
ARC
  8
Gravur
 62
   7
 39
0.200
  6
CONTINUOUS
 10
13.71372
 20
25.59828
 30
 0
 40
0.49306
 50
0.00000
 51
180.00000
  0
LINE
  8
Gravur
 62
   7
 39
0.200
  6
CONTINUOUS
 10
13.22067
 20
25.59828
 30
 0
 11
13.22067
 21
25.40106
  0
ARC
  8
Gravur
 62
   7
 39
0.200
  6
CONTINUOUS
 10
13.73771
 20
25.40064
 30
 0
 40
0.51704
 50
179.95424
 51
322.44599
  0
ARC
  8
Gravur
 62
   7
 39
0.200
  6
CONTINUOUS
 10
15.12759
 20
25.56416
 30
 0
 40
0.67009
 50
228.05192
 51
293.02344
  0
ARC
  8
Gravur
 62
   7
 39
0.200
  6
CONTINUOUS
 10
15.29102
 20
25.18041
 30
 0
 40
0.25299
 50
292.94873
 51
431.82316
  0
LINE
  8
Gravur
 62
   7
 39
0.200
  6
CONTINUOUS
 10
15.36994
 20
25.42078
 30
 0
 11
14.83744
 21
25.59828
  0
ARC
  8
Gravur
 62
   7
 39
0.200
  6
CONTINUOUS
 10
14.90848
 20
25.81401
 30
 0
 40
0.22712
 50
119.10762
 51
251.77304
  0
ARC
  8
Gravur
 62
   7
 39
0.200
  6
CONTINUOUS
 10
15.14175
 20
25.40420
 30
 0
 40
0.69866
 50
54.50145
 51
119.47297
  0
LINE
  8
Gravur
 62
   7
 39
0.200
  6
CONTINUOUS
 10
16.02067
 20
25.49967
 30
 0
 11
17.00678
 21
25.49967
  0
LINE
  8
Gravur
 62
   7
 39
0.200
  6
CONTINUOUS
 10
17.00678
 20
25.49967
 30
 0
 11
17.00678
 21
25.59828
  0
ARC
  8
Gravur
 62
   7
 39
0.200
  6
CONTINUOUS
 10
16.51372
 20
25.59828
 30
 0
 40
0.49306
 50
0.00000
 51
180.00000
  0
LINE
  8
Gravur
 62
   7
 39
0.200
  6
CONTINUOUS
 10
16.02067
 20
25.59828
 30
 0
 11
16.02067
 21
25.40106
  0
ARC
  8
Gravur
 62
   7
 39
0.200
  6
CONTINUOUS
 10
16.53771
 20
25.40064
 30
 0
 40
0.51704
 50
179.95424
 51
322.44599
  0
LINE
  8
Gravur
 62
   7
 39
0.200
  6
CONTINUOUS
 10
17.65717
 20
26.68300
 30
 0
 11
17.65717
 21
26.09133
  0
LINE
  8
Gravur
 62
   7
 39
0.200
  6
CONTINUOUS
 10
17.65717
 20
26.09133
 30
 0
 11
17.95300
 21
26.09133
  0
LINE
  8
Gravur
 62
   7
 39
0.200
  6
CONTINUOUS
 10
17.95300
 20
26.09133
 30
 0
 11
17.45994
 21
26.09133
  0
LINE
  8
Gravur
 62
   7
 39
0.200
  6
CONTINUOUS
 10
17.45994
 20
26.09133
 30
 0
 11
17.65717
 21
26.09133
  0
LINE
  8
Gravur
 62
   7
 39
0.200
  6
CONTINUOUS
 10
17.65717
 20
26.09133
 30
 0
 11
17.65717
 21
25.14467
  0
ARC
  8
Gravur
 62
   7
 39
0.200
  6
CONTINUOUS
 10
17.89770
 20
25.14460
 30
 0
 40
0.24053
 50
179.98432
 51
259.62682
  0
LINE
  8
Gravur
 62
   7
 39
0.200
  6
CONTINUOUS
 10
30.90178
 20
26.68300
 30
 0
 11
30.90178
 21
25.40106
  0
ARC
  8
Gravur
 62
   7
 39
0.200
  6
CONTINUOUS
 10
30.40872
 20
25.38133
 30
 0
 40
0.49345
 50
-177.70939
 51
2.29061
  0
LINE
  8
Gravur
 62
   7
 39
0.200
  6
CONTINUOUS
 10
29.91567
 20
25.36161
 30
 0
 11
29.91567
 21
25.59828
  0
ARC
  8
Gravur
 62
   7
 39
0.200
  6
CONTINUOUS
 10
30.40872
 20
25.59828
 30
 0
 40
0.49306
 50
0.00000
 51
180.00000
  0
LINE
  8
Gravur
 62
   7
 39
0.200
  6
CONTINUOUS
 10
30.90178
 20
25.59828
 30
 0
 11
30.90178
 21
24.90800
  0
LINE
  8
Gravur
 62
   7
 39
0.200
  6
CONTINUOUS
 10
31.37467
 20
26.68400
 30
 0
 11
31.37467
 21
26.58539
  0
LINE
  8
Gravur
 62
   7
 39
0.200
  6
CONTINUOUS
 10
31.37467
 20
26.09233
 30
 0
 11
31.37467
 21
24.90900
  0
LINE
  8
Gravur
 62
   7
 39
0.200
  6
CONTINUOUS
 10
31.84767
 20
26.09333
 30
 0
 11
32.34072
 21
24.91000
  0
LINE
  8
Gravur
 62
   7
 39
0.200
  6
CONTINUOUS
 10
32.34072
 20
24.91000
 30
 0
 11
32.83378
 21
26.09333
  0
LINE
  8
Gravur
 62
   7
 39
0.200
  6
CONTINUOUS
 10
33.30667
 20
24.91000
 30
 0
 11
33.30667
 21
25.00861
  0
LINE
  8
Gravur
 62
   7
 39
0.200
  6
CONTINUOUS
 10
33.95717
 20
26.68500
 30
 0
 11
33.95717
 21
26.09333
  0
LINE
  8
Gravur
 62
   7
 39
0.200
  6
CONTINUOUS
 10
33.95717
 20
26.09333
 30
 0
 11
34.25300
 21
26.09333
  0
LINE
  8
Gravur
 62
   7
 39
0.200
  6
CONTINUOUS
 10
34.25300
 20
26.09333
 30
 0
 11
33.75994
 21
26.09333
  0
LINE
  8
Gravur
 62
   7
 39
0.200
  6
CONTINUOUS
 10
33.75994
 20
26.09333
 30
 0
 11
33.95717
 21
26.09333
  0
LINE
  8
Gravur
 62
   7
 39
0.200
  6
CONTINUOUS
 10
33.95717
 20
26.09333
 30
 0
 11
33.95717
 21
25.14667
  0
ARC
  8
Gravur
 62
   7
 39
0.200
  6
CONTINUOUS
 10
34.19770
 20
25.14660
 30
 0
 40
0.24053
 50
179.98432
 51
259.62682
  0
LINE
  8
Gravur
 62
   7
 39
0.200
  6
CONTINUOUS
 10
34.72567
 20
24.91100
 30
 0
 11
34.72567
 21
26.09433
  0
LINE
  8
Gravur
 62
   7
 39
0.200
  6
CONTINUOUS
 10
34.72567
 20
26.09433
 30
 0
 11
34.72567
 21
25.69989
  0
ARC
  8
Gravur
 62
   7
 39
0.200
  6
CONTINUOUS
 10
35.16149
 20
25.69990
 30
 0
 40
0.43583
 50
140.69073
 51
180.00162
  0
ARC
  8
Gravur
 62
   7
 39
0.200
  6
CONTINUOUS
 10
35.04122
 20
25.79765
 30
 0
 40
0.28085
 50
39.42406
 51
140.57594
  0
LINE
  8
Gravur
 62
   7
 39
0.200
  6
CONTINUOUS
 10
35.71167
 20
26.68600
 30
 0
 11
35.71167
 21
26.58739
  0
LINE
  8
Gravur
 62
   7
 39
0.200
  6
CONTINUOUS
 10
35.71167
 20
26.09433
 30
 0
 11
35.71167
 21
24.91100
  0
LINE
  8
Gravur
 62
   7
 39
0.200
  6
CONTINUOUS
 10
37.17078
 20
26.09533
 30
 0
 11
37.17078
 21
25.40506
  0
ARC
  8
Gravur
 62
   7
 39
0.200
  6
CONTINUOUS
 10
36.67772
 20
25.38533
 30
 0
 40
0.49345
 50
-177.70939
 51
2.29061
  0
LINE
  8
Gravur
 62
   7
 39
0.200
  6
CONTINUOUS
 10
36.18467
 20
25.36561
 30
 0
 11
36.18467
 21
25.60228
  0
ARC
  8
Gravur
 62
   7
 39
0.200
  6
CONTINUOUS
 10
36.67772
 20
25.60228
 30
 0
 40
0.49306
 50
0.00000
 51
180.00000
  0
LINE
  8
Gravur
 62
   7
 39
0.200
  6
CONTINUOUS
 10
37.17078
 20
25.60228
 30
 0
 11
37.17078
 21
24.81339
  0
ARC
  8
Gravur
 62
   7
 39
0.200
  6
CONTINUOUS
 10
36.67355
 20
24.81076
 30
 0
 40
0.49724
 50
-134.87369
 51
0.30252
  0
LINE
  8
Gravur
 62
   7
 39
0.200
  6
CONTINUOUS
 10
47.80473
 20
26.15980
 30
 0
 11
47.86553
 21
26.21047
  0
ARC
  8
Gravur
 62
   7
 39
0.200
  6
CONTINUOUS
 10
48.02982
 20
26.02009
 30
 0
 40
0.25146
 50
-40.79241
 51
130.79241
  0
LINE
  8
Gravur
 62
   7
 39
0.200
  6
CONTINUOUS
 10
48.22020
 20
25.85580
 30
 0
 11
47.79460
 21
25.33900
  0
LINE
  8
Gravur
 62
   7
 39
0.200
  6
CONTINUOUS
 10
47.79460
 20
25.33900
 30
 0
 11
48.30127
 21
25.33900
  0
LINE
  8
Gravur
 62
   7
 39
0.200
  6
CONTINUOUS
 10
49.00973
 20
26.25200
 30
 0
 11
48.55373
 21
26.25200
  0
LINE
  8
Gravur
 62
   7
 39
0.200
  6
CONTINUOUS
 10
48.55373
 20
26.25200
 30
 0
 11
48.55373
 21
25.82640
  0
ARC
  8
Gravur
 62
   7
 39
0.200
  6
CONTINUOUS
 10
48.76582
 20
25.55162
 30
 0
 40
0.34711
 50
84.85750
 51
127.66291
  0
ARC
  8
Gravur
 62
   7
 39
0.200
  6
CONTINUOUS
 10
48.76927
 20
25.60540
 30
 0
 40
0.29324
 50
-44.24474
 51
84.58605
  0
ARC
  8
Gravur
 62
   7
 39
0.200
  6
CONTINUOUS
 10
48.78397
 20
25.59247
 30
 0
 40
0.27369
 50
208.56608
 51
315.54698
  0
ARC
  8
Gravur
 62
   7
 39
0.200
  6
CONTINUOUS
 10
49.55607
 20
25.63487
 30
 0
 40
0.26347
 50
0.00000
 51
180.00000
  0
LINE
  8
Gravur
 62
   7
 39
0.200
  6
CONTINUOUS
 10
49.81953
 20
25.63487
 30
 0
 11
49.81953
 21
25.58420
  0
ARC
  8
Gravur
 62
   7
 39
0.200
  6
CONTINUOUS
 10
49.55607
 20
25.58420
 30
 0
 40
0.26347
 50
-180.00000
 51
0.00000
  0
LINE
  8
Gravur
 62
   7
 39
0.200
  6
CONTINUOUS
 10
49.29260
 20
25.58420
 30
 0
 11
49.29260
 21
25.97940
  0
ARC
  8
Gravur
 62
   7
 39
0.200
  6
CONTINUOUS
 10
49.57327
 20
25.99060
 30
 0
 40
0.28089
 50
45.86651
 51
182.28449
  0
LINE
  8
Gravur
 62
   7
 39
0.200
  6
CONTINUOUS
 10
50.06260
 20
25.28120
 30
 0
 11
50.44767
 21
26.30467
  0
LINE
  8
Gravur
 62
   7
 39
0.200
  6
CONTINUOUS
 10
50.69060
 20
26.05133
 30
 0
 11
50.89327
 21
26.25400
  0
LINE
  8
Gravur
 62
   7
 39
0.200
  6
CONTINUOUS
 10
50.89327
 20
26.25400
 30
 0
 11
50.89327
 21
25.34200
  0
ARC
  8
Gravur
 62
   7
 39
0.200
  6
CONTINUOUS
 10
51.38893
 20
25.95000
 30
 0
 40
0.25333
 50
-180.00000
 51
0.00000
  0
LINE
  8
Gravur
 62
   7
 39
0.200
  6
CONTINUOUS
 10
51.13560
 20
25.95000
 30
 0
 11
51.13560
 21
26.02093
  0
ARC
  8
Gravur
 62
   7
 39
0.200
  6
CONTINUOUS
 10
51.38893
 20
26.02093
 30
 0
 40
0.25333
 50
0.00000
 51
180.00000
  0
LINE
  8
Gravur
 62
   7
 39
0.200
  6
CONTINUOUS
 10
51.64227
 20
26.02093
 30
 0
 11
51.64227
 21
25.60547
  0
ARC
  8
Gravur
 62
   7
 39
0.200
  6
CONTINUOUS
 10
51.37173
 20
25.59022
 30
 0
 40
0.27097
 50
-133.19210
 51
3.22589
  0
LINE
  8
Gravur
 62
   7
 39
0.200
  6
CONTINUOUS
 10
51.88460
 20
25.28220
 30
 0
 11
52.26967
 21
26.30567
  0
LINE
  8
Gravur
 62
   7
 39
0.200
  6
CONTINUOUS
 10
52.97873
 20
26.25500
 30
 0
 11
52.52273
 21
26.25500
  0
LINE
  8
Gravur
 62
   7
 39
0.200
  6
CONTINUOUS
 10
52.52273
 20
26.25500
 30
 0
 11
52.52273
 21
25.82940
  0
ARC
  8
Gravur
 62
   7
 39
0.200
  6
CONTINUOUS
 10
52.73482
 20
25.55462
 30
 0
 40
0.34711
 50
84.85750
 51
127.66291
  0
ARC
  8
Gravur
 62
   7
 39
0.200
  6
CONTINUOUS
 10
52.73827
 20
25.60840
 30
 0
 40
0.29324
 50
-44.24474
 51
84.58605
  0
ARC
  8
Gravur
 62
   7
 39
0.200
  6
CONTINUOUS
 10
52.75297
 20
25.59547
 30
 0
 40
0.27369
 50
208.56608
 51
315.54698
  0
LINE
  8
Gravur
 62
   7
 39
0.200
  6
CONTINUOUS
 10
53.72773
 20
26.25600
 30
 0
 11
53.27173
 21
26.25600
  0
LINE
  8
Gravur
 62
   7
 39
0.200
  6
CONTINUOUS
 10
53.27173
 20
26.25600
 30
 0
 11
53.27173
 21
25.83040
  0
ARC
  8
Gravur
 62
   7
 39
0.200
  6
CONTINUOUS
 10
53.48382
 20
25.55562
 30
 0
 40
0.34711
 50
84.85750
 51
127.66291
  0
ARC
  8
Gravur
 62
   7
 39
0.200
  6
CONTINUOUS
 10
53.48727
 20
25.60940
 30
 0
 40
0.29324
 50
-44.24474
 51
84.58605
  0
ARC
  8
Gravur
 62
   7
 39
0.200
  6
CONTINUOUS
 10
53.50197
 20
25.59647
 30
 0
 40
0.27369
 50
208.56608
 51
315.54698
  0
LINE
  8
Gravur
 62
   7
 39
0.200
  6
CONTINUOUS
 10
30.75967
 20
39.38400
 30
 0
 11
30.75967
 21
38.10206
  0
ARC
  8
Gravur
 62
   7
 39
0.200
  6
CONTINUOUS
 10
31.25272
 20
38.10206
 30
 0
 40
0.49306
 50
180.00000
 51
360.00000
  0
LINE
  8
Gravur
 62
   7
 39
0.200
  6
CONTINUOUS
 10
31.74578
 20
38.10206
 30
 0
 11
31.74578
 21
38.29928
  0
ARC
  8
Gravur
 62
   7
 39
0.200
  6
CONTINUOUS
 10
31.25272
 20
38.29928
 30
 0
 40
0.49306
 50
0.00000
 51
180.00000
  0
LINE
  8
Gravur
 62
   7
 39
0.200
  6
CONTINUOUS
 10
30.75967
 20
38.29928
 30
 0
 11
30.75967
 21
37.60900
  0
LINE
  8
Gravur
 62
   7
 39
0.200
  6
CONTINUOUS
 10
33.24422
 20
38.79333
 30
 0
 11
33.24422
 21
38.10306
  0
ARC
  8
Gravur
 62
   7
 39
0.200
  6
CONTINUOUS
 10
32.73144
 20
38.10306
 30
 0
 40
0.51278
 50
-180.00000
 51
0.00000
  0
LINE
  8
Gravur
 62
   7
 39
0.200
  6
CONTINUOUS
 10
32.21867
 20
38.10306
 30
 0
 11
32.21867
 21
38.30028
  0
ARC
  8
Gravur
 62
   7
 39
0.200
  6
CONTINUOUS
 10
32.73144
 20
38.30028
 30
 0
 40
0.51278
 50
0.00000
 51
180.00000
  0
LINE
  8
Gravur
 62
   7
 39
0.200
  6
CONTINUOUS
 10
33.24422
 20
38.30028
 30
 0
 11
33.24422
 21
37.82694
  0
ARC
  8
Gravur
 62
   7
 39
0.200
  6
CONTINUOUS
 10
33.53016
 20
37.85347
 30
 0
 40
0.28717
 50
185.29897
 51
260.11981
  0
LINE
  8
Gravur
 62
   7
 39
0.200
  6
CONTINUOUS
 10
33.95367
 20
37.61100
 30
 0
 11
33.95367
 21
38.79433
  0
LINE
  8
Gravur
 62
   7
 39
0.200
  6
CONTINUOUS
 10
33.95367
 20
38.79433
 30
 0
 11
33.95367
 21
38.39989
  0
ARC
  8
Gravur
 62
   7
 39
0.200
  6
CONTINUOUS
 10
34.38949
 20
38.39990
 30
 0
 40
0.43583
 50
140.69073
 51
180.00162
  0
ARC
  8
Gravur
 62
   7
 39
0.200
  6
CONTINUOUS
 10
34.26922
 20
38.49765
 30
 0
 40
0.28085
 50
39.42406
 51
140.57594
  0
LINE
  8
Gravur
 62
   7
 39
0.200
  6
CONTINUOUS
 10
47.79460
 20
38.74833
 30
 0
 11
47.99727
 21
38.95100
  0
LINE
  8
Gravur
 62
   7
 39
0.200
  6
CONTINUOUS
 10
47.99727
 20
38.95100
 30
 0
 11
47.99727
 21
38.03900
  0
LINE
  8
Gravur
 62
   7
 39
0.200
  6
CONTINUOUS
 10
48.24973
 20
38.85980
 30
 0
 11
48.31053
 21
38.91047
  0
ARC
  8
Gravur
 62
   7
 39
0.200
  6
CONTINUOUS
 10
48.47482
 20
38.72009
 30
 0
 40
0.25146
 50
-40.79241
 51
130.79241
  0
LINE
  8
Gravur
 62
   7
 39
0.200
  6
CONTINUOUS
 10
48.66520
 20
38.55580
 30
 0
 11
48.23960
 21
38.03900
  0
LINE
  8
Gravur
 62
   7
 39
0.200
  6
CONTINUOUS
 10
48.23960
 20
38.03900
 30
 0
 11
48.74627
 21
38.03900
  0
ARC
  8
Gravur
 62
   7
 39
0.200
  6
CONTINUOUS
 10
49.25207
 20
38.28320
 30
 0
 40
0.26347
 50
-90.00000
 51
90.00000
  0
ARC
  8
Gravur
 62
   7
 39
0.200
  6
CONTINUOUS
 10
49.25207
 20
38.28320
 30
 0
 40
0.26347
 50
90.00000
 51
270.00000
  0
ARC
  8
Gravur
 62
   7
 39
0.200
  6
CONTINUOUS
 10
49.25207
 20
38.75947
 30
 0
 40
0.21280
 50
270.00000
 51
450.00000
  0
ARC
  8
Gravur
 62
   7
 39
0.200
  6
CONTINUOUS
 10
49.25207
 20
38.75947
 30
 0
 40
0.21280
 50
90.00000
 51
270.00000
  0
LINE
  8
Gravur
 62
   7
 39
0.200
  6
CONTINUOUS
 10
49.75860
 20
37.97920
 30
 0
 11
50.14367
 21
39.00267
  0
LINE
  8
Gravur
 62
   7
 39
0.200
  6
CONTINUOUS
 10
50.38660
 20
38.74933
 30
 0
 11
50.58927
 21
38.95200
  0
LINE
  8
Gravur
 62
   7
 39
0.200
  6
CONTINUOUS
 10
50.58927
 20
38.95200
 30
 0
 11
50.58927
 21
38.04000
  0
LINE
  8
Gravur
 62
   7
 39
0.200
  6
CONTINUOUS
 10
50.83160
 20
38.80000
 30
 0
 11
50.83160
 21
38.95200
  0
LINE
  8
Gravur
 62
   7
 39
0.200
  6
CONTINUOUS
 10
50.83160
 20
38.95200
 30
 0
 11
51.33827
 21
38.95200
  0
LINE
  8
Gravur
 62
   7
 39
0.200
  6
CONTINUOUS
 10
51.33827
 20
38.95200
 30
 0
 11
50.93293
 21
38.04000
  0
LINE
  8
Gravur
 62
   7
 39
0.200
  6
CONTINUOUS
 10
51.58060
 20
37.97920
 30
 0
 11
51.96567
 21
39.00267
  0
ARC
  8
Gravur
 62
   7
 39
0.200
  6
CONTINUOUS
 10
52.45354
 20
38.70619
 30
 0
 40
0.26608
 50
90.37438
 51
157.00576
  0
ARC
  8
Gravur
 62
   7
 39
0.200
  6
CONTINUOUS
 10
52.45180
 20
38.73413
 30
 0
 40
0.23813
 50
-90.00000
 51
90.00000
  0
ARC
  8
Gravur
 62
   7
 39
0.200
  6
CONTINUOUS
 10
52.45180
 20
38.25787
 30
 0
 40
0.23813
 50
-90.00000
 51
90.00000
  0
ARC
  8
Gravur
 62
   7
 39
0.200
  6
CONTINUOUS
 10
52.45318
 20
38.30150
 30
 0
 40
0.28177
 50
209.76844
 51
269.71869
  0
LINE
  8
Gravur
 62
   7
 39
0.200
  6
CONTINUOUS
 10
53.24160
 20
38.95200
 30
 0
 11
52.93760
 21
38.19200
  0
LINE
  8
Gravur
 62
   7
 39
0.200
  6
CONTINUOUS
 10
52.93760
 20
38.19200
 30
 0
 11
53.44427
 21
38.19200
  0
LINE
  8
Gravur
 62
   7
 39
0.200
  6
CONTINUOUS
 10
53.44427
 20
38.19200
 30
 0
 11
53.34293
 21
38.19200
  0
LINE
  8
Gravur
 62
   7
 39
0.200
  6
CONTINUOUS
 10
53.34293
 20
38.19200
 30
 0
 11
53.34293
 21
38.34400
  0
LINE
  8
Gravur
 62
   7
 39
0.200
  6
CONTINUOUS
 10
53.34293
 20
38.34400
 30
 0
 11
53.34293
 21
38.04000
  0
LINE
  8
Gravur
 62
   7
 39
0.200
  6
CONTINUOUS
 10
30.25267
 20
51.68856
 30
 0
 11
30.64711
 21
52.08300
  0
LINE
  8
Gravur
 62
   7
 39
0.200
  6
CONTINUOUS
 10
30.64711
 20
52.08300
 30
 0
 11
30.64711
 21
50.30800
  0
ARC
  8
Gravur
 62
   7
 39
0.200
  6
CONTINUOUS
 10
31.63244
 20
50.87994
 30
 0
 40
0.51278
 50
0.00000
 51
180.00000
  0
LINE
  8
Gravur
 62
   7
 39
0.200
  6
CONTINUOUS
 10
32.14522
 20
50.87994
 30
 0
 11
32.14522
 21
50.78133
  0
ARC
  8
Gravur
 62
   7
 39
0.200
  6
CONTINUOUS
 10
31.63244
 20
50.78133
 30
 0
 40
0.51278
 50
-180.00000
 51
0.00000
  0
LINE
  8
Gravur
 62
   7
 39
0.200
  6
CONTINUOUS
 10
31.11967
 20
50.78133
 30
 0
 11
31.11967
 21
51.55050
  0
ARC
  8
Gravur
 62
   7
 39
0.200
  6
CONTINUOUS
 10
31.66593
 20
51.57229
 30
 0
 40
0.54670
 50
45.86651
 51
182.28449
  0
LINE
  8
Gravur
 62
   7
 39
0.200
  6
CONTINUOUS
 10
32.79517
 20
52.08400
 30
 0
 11
32.79517
 21
51.49233
  0
LINE
  8
Gravur
 62
   7
 39
0.200
  6
CONTINUOUS
 10
32.79517
 20
51.49233
 30
 0
 11
33.09100
 21
51.49233
  0
LINE
  8
Gravur
 62
   7
 39
0.200
  6
CONTINUOUS
 10
33.09100
 20
51.49233
 30
 0
 11
32.59794
 21
51.49233
  0
LINE
  8
Gravur
 62
   7
 39
0.200
  6
CONTINUOUS
 10
32.59794
 20
51.49233
 30
 0
 11
32.79517
 21
51.49233
  0
LINE
  8
Gravur
 62
   7
 39
0.200
  6
CONTINUOUS
 10
32.79517
 20
51.49233
 30
 0
 11
32.79517
 21
50.54567
  0
ARC
  8
Gravur
 62
   7
 39
0.200
  6
CONTINUOUS
 10
33.03570
 20
50.54560
 30
 0
 40
0.24053
 50
179.98432
 51
259.62682
  0
LINE
  8
Gravur
 62
   7
 39
0.200
  6
CONTINUOUS
 10
33.56367
 20
52.08500
 30
 0
 11
33.56367
 21
50.31000
  0
LINE
  8
Gravur
 62
   7
 39
0.200
  6
CONTINUOUS
 10
33.56367
 20
50.31000
 30
 0
 11
33.56367
 21
51.00028
  0
ARC
  8
Gravur
 62
   7
 39
0.200
  6
CONTINUOUS
 10
34.05672
 20
51.00028
 30
 0
 40
0.49306
 50
0.00000
 51
180.00000
  0
LINE
  8
Gravur
 62
   7
 39
0.200
  6
CONTINUOUS
 10
34.54978
 20
51.00028
 30
 0
 11
34.54978
 21
50.31000
  0
ARC
  8
Gravur
 62
   7
 39
0.200
  6
CONTINUOUS
 10
35.47059
 20
50.96616
 30
 0
 40
0.67009
 50
228.05192
 51
293.02344
  0
ARC
  8
Gravur
 62
   7
 39
0.200
  6
CONTINUOUS
 10
35.63402
 20
50.58241
 30
 0
 40
0.25299
 50
292.94873
 51
431.82316
  0
LINE
  8
Gravur
 62
   7
 39
0.200
  6
CONTINUOUS
 10
35.71294
 20
50.82278
 30
 0
 11
35.18044
 21
51.00028
  0
ARC
  8
Gravur
 62
   7
 39
0.200
  6
CONTINUOUS
 10
35.25148
 20
51.21601
 30
 0
 40
0.22712
 50
119.10762
 51
251.77304
  0
ARC
  8
Gravur
 62
   7
 39
0.200
  6
CONTINUOUS
 10
35.48475
 20
50.80620
 30
 0
 40
0.69866
 50
54.50145
 51
119.47297
  0
ARC
  8
Gravur
 62
   7
 39
0.200
  6
CONTINUOUS
 10
48.06007
 20
51.03287
 30
 0
 40
0.26347
 50
0.00000
 51
180.00000
  0
LINE
  8
Gravur
 62
   7
 39
0.200
  6
CONTINUOUS
 10
48.32353
 20
51.03287
 30
 0
 11
48.32353
 21
50.98220
  0
ARC
  8
Gravur
 62
   7
 39
0.200
  6
CONTINUOUS
 10
48.06007
 20
50.98220
 30
 0
 40
0.26347
 50
-180.00000
 51
0.00000
  0
LINE
  8
Gravur
 62
   7
 39
0.200
  6
CONTINUOUS
 10
47.79660
 20
50.98220
 30
 0
 11
47.79660
 21
51.37740
  0
ARC
  8
Gravur
 62
   7
 39
0.200
  6
CONTINUOUS
 10
48.07727
 20
51.38860
 30
 0
 40
0.28089
 50
45.86651
 51
182.28449
  0
LINE
  8
Gravur
 62
   7
 39
0.200
  6
CONTINUOUS
 10
48.87060
 20
51.65200
 30
 0
 11
48.56660
 21
50.89200
  0
LINE
  8
Gravur
 62
   7
 39
0.200
  6
CONTINUOUS
 10
48.56660
 20
50.89200
 30
 0
 11
49.07327
 21
50.89200
  0
LINE
  8
Gravur
 62
   7
 39
0.200
  6
CONTINUOUS
 10
49.07327
 20
50.89200
 30
 0
 11
48.97193
 21
50.89200
  0
LINE
  8
Gravur
 62
   7
 39
0.200
  6
CONTINUOUS
 10
48.97193
 20
50.89200
 30
 0
 11
48.97193
 21
51.04400
  0
LINE
  8
Gravur
 62
   7
 39
0.200
  6
CONTINUOUS
 10
48.97193
 20
51.04400
 30
 0
 11
48.97193
 21
50.74000
  0
LINE
  8
Gravur
 62
   7
 39
0.200
  6
CONTINUOUS
 10
49.31560
 20
50.67920
 30
 0
 11
49.70067
 21
51.70267
  0
LINE
  8
Gravur
 62
   7
 39
0.200
  6
CONTINUOUS
 10
49.94360
 20
51.44933
 30
 0
 11
50.14627
 21
51.65200
  0
LINE
  8
Gravur
 62
   7
 39
0.200
  6
CONTINUOUS
 10
50.14627
 20
51.65200
 30
 0
 11
50.14627
 21
50.74000
  0
ARC
  8
Gravur
 62
   7
 39
0.200
  6
CONTINUOUS
 10
50.65207
 20
51.03387
 30
 0
 40
0.26347
 50
0.00000
 51
180.00000
  0
LINE
  8
Gravur
 62
   7
 39
0.200
  6
CONTINUOUS
 10
50.91553
 20
51.03387
 30
 0
 11
50.91553
 21
50.98320
  0
ARC
  8
Gravur
 62
   7
 39
0.200
  6
CONTINUOUS
 10
50.65207
 20
50.98320
 30
 0
 40
0.26347
 50
-180.00000
 51
0.00000
  0
LINE
  8
Gravur
 62
   7
 39
0.200
  6
CONTINUOUS
 10
50.38860
 20
50.98320
 30
 0
 11
50.38860
 21
51.37840
  0
ARC
  8
Gravur
 62
   7
 39
0.200
  6
CONTINUOUS
 10
50.66927
 20
51.38960
 30
 0
 40
0.28089
 50
45.86651
 51
182.28449
  0
LINE
  8
Gravur
 62
   7
 39
0.200
  6
CONTINUOUS
 10
51.15860
 20
50.68020
 30
 0
 11
51.54367
 21
51.70367
  0
LINE
  8
Gravur
 62
   7
 39
0.200
  6
CONTINUOUS
 10
51.79673
 20
51.56180
 30
 0
 11
51.85753
 21
51.61247
  0
ARC
  8
Gravur
 62
   7
 39
0.200
  6
CONTINUOUS
 10
52.02182
 20
51.42209
 30
 0
 40
0.25146
 50
-40.79241
 51
130.79241
  0
LINE
  8
Gravur
 62
   7
 39
0.200
  6
CONTINUOUS
 10
52.21220
 20
51.25780
 30
 0
 11
51.78660
 21
50.74100
  0
LINE
  8
Gravur
 62
   7
 39
0.200
  6
CONTINUOUS
 10
51.78660
 20
50.74100
 30
 0
 11
52.29327
 21
50.74100
  0
LINE
  8
Gravur
 62
   7
 39
0.200
  6
CONTINUOUS
 10
52.53560
 20
51.45133
 30
 0
 11
52.73827
 21
51.65400
  0
LINE
  8
Gravur
 62
   7
 39
0.200
  6
CONTINUOUS
 10
52.73827
 20
51.65400
 30
 0
 11
52.73827
 21
50.74200
  0
ARC
  8
Gravur
 62
   7
 39
0.200
  6
CONTINUOUS
 10
31.52938
 20
64.30459
 30
 0
 40
0.51786
 50
90.37438
 51
157.00576
  0
ARC
  8
Gravur
 62
   7
 39
0.200
  6
CONTINUOUS
 10
31.52600
 20
64.35897
 30
 0
 40
0.46347
 50
-90.00000
 51
90.00000
  0
ARC
  8
Gravur
 62
   7
 39
0.200
  6
CONTINUOUS
 10
31.52600
 20
63.43203
 30
 0
 40
0.46347
 50
-90.00000
 51
90.00000
  0
ARC
  8
Gravur
 62
   7
 39
0.200
  6
CONTINUOUS
 10
31.52869
 20
63.51694
 30
 0
 40
0.54839
 50
209.76844
 51
269.71869
  0
LINE
  8
Gravur
 62
   7
 39
0.200
  6
CONTINUOUS
 10
32.49239
 20
64.60550
 30
 0
 11
32.61072
 21
64.70411
  0
ARC
  8
Gravur
 62
   7
 39
0.200
  6
CONTINUOUS
 10
32.93047
 20
64.33358
 30
 0
 40
0.48942
 50
-40.79241
 51
130.79241
  0
LINE
  8
Gravur
 62
   7
 39
0.200
  6
CONTINUOUS
 10
33.30100
 20
64.01383
 30
 0
 11
32.47267
 21
63.00800
  0
LINE
  8
Gravur
 62
   7
 39
0.200
  6
CONTINUOUS
 10
32.47267
 20
63.00800
 30
 0
 11
33.45878
 21
63.00800
  0
LINE
  8
Gravur
 62
   7
 39
0.200
  6
CONTINUOUS
 10
34.10917
 20
64.78400
 30
 0
 11
34.10917
 21
64.19233
  0
LINE
  8
Gravur
 62
   7
 39
0.200
  6
CONTINUOUS
 10
34.10917
 20
64.19233
 30
 0
 11
34.40500
 21
64.19233
  0
LINE
  8
Gravur
 62
   7
 39
0.200
  6
CONTINUOUS
 10
34.40500
 20
64.19233
 30
 0
 11
33.91194
 21
64.19233
  0
LINE
  8
Gravur
 62
   7
 39
0.200
  6
CONTINUOUS
 10
33.91194
 20
64.19233
 30
 0
 11
34.10917
 21
64.19233
  0
LINE
  8
Gravur
 62
   7
 39
0.200
  6
CONTINUOUS
 10
34.10917
 20
64.19233
 30
 0
 11
34.10917
 21
63.24567
  0
ARC
  8
Gravur
 62
   7
 39
0.200
  6
CONTINUOUS
 10
34.34970
 20
63.24560
 30
 0
 40
0.24053
 50
179.98432
 51
259.62682
  0
LINE
  8
Gravur
 62
   7
 39
0.200
  6
CONTINUOUS
 10
34.87767
 20
64.78500
 30
 0
 11
34.87767
 21
63.01000
  0
LINE
  8
Gravur
 62
   7
 39
0.200
  6
CONTINUOUS
 10
34.87767
 20
63.01000
 30
 0
 11
34.87767
 21
63.70028
  0
ARC
  8
Gravur
 62
   7
 39
0.200
  6
CONTINUOUS
 10
35.37072
 20
63.70028
 30
 0
 40
0.49306
 50
0.00000
 51
180.00000
  0
LINE
  8
Gravur
 62
   7
 39
0.200
  6
CONTINUOUS
 10
35.86378
 20
63.70028
 30
 0
 11
35.86378
 21
63.01000
  0
ARC
  8
Gravur
 62
   7
 39
0.200
  6
CONTINUOUS
 10
36.78459
 20
63.66616
 30
 0
 40
0.67009
 50
228.05192
 51
293.02344
  0
ARC
  8
Gravur
 62
   7
 39
0.200
  6
CONTINUOUS
 10
36.94802
 20
63.28241
 30
 0
 40
0.25299
 50
292.94873
 51
431.82316
  0
LINE
  8
Gravur
 62
   7
 39
0.200
  6
CONTINUOUS
 10
37.02694
 20
63.52278
 30
 0
 11
36.49444
 21
63.70028
  0
ARC
  8
Gravur
 62
   7
 39
0.200
  6
CONTINUOUS
 10
36.56548
 20
63.91601
 30
 0
 40
0.22712
 50
119.10762
 51
251.77304
  0
ARC
  8
Gravur
 62
   7
 39
0.200
  6
CONTINUOUS
 10
36.79875
 20
63.50620
 30
 0
 40
0.69866
 50
54.50145
 51
119.47297
  0
ARC
  8
Gravur
 62
   7
 39
0.200
  6
CONTINUOUS
 10
48.03954
 20
64.10519
 30
 0
 40
0.26608
 50
90.37438
 51
157.00576
  0
ARC
  8
Gravur
 62
   7
 39
0.200
  6
CONTINUOUS
 10
48.03780
 20
64.13313
 30
 0
 40
0.23813
 50
-90.00000
 51
90.00000
  0
ARC
  8
Gravur
 62
   7
 39
0.200
  6
CONTINUOUS
 10
48.03780
 20
63.65687
 30
 0
 40
0.23813
 50
-90.00000
 51
90.00000
  0
ARC
  8
Gravur
 62
   7
 39
0.200
  6
CONTINUOUS
 10
48.03918
 20
63.70050
 30
 0
 40
0.28177
 50
209.76844
 51
269.71869
  0
LINE
  8
Gravur
 62
   7
 39
0.200
  6
CONTINUOUS
 10
48.53373
 20
64.25980
 30
 0
 11
48.59453
 21
64.31047
  0
ARC
  8
Gravur
 62
   7
 39
0.200
  6
CONTINUOUS
 10
48.75882
 20
64.12009
 30
 0
 40
0.25146
 50
-40.79241
 51
130.79241
  0
LINE
  8
Gravur
 62
   7
 39
0.200
  6
CONTINUOUS
 10
48.94920
 20
63.95580
 30
 0
 11
48.52360
 21
63.43900
  0
LINE
  8
Gravur
 62
   7
 39
0.200
  6
CONTINUOUS
 10
48.52360
 20
63.43900
 30
 0
 11
49.03027
 21
63.43900
  0
LINE
  8
Gravur
 62
   7
 39
0.200
  6
CONTINUOUS
 10
49.27260
 20
63.37920
 30
 0
 11
49.65767
 21
64.40267
  0
LINE
  8
Gravur
 62
   7
 39
0.200
  6
CONTINUOUS
 10
49.90060
 20
64.14933
 30
 0
 11
50.10327
 21
64.35200
  0
LINE
  8
Gravur
 62
   7
 39
0.200
  6
CONTINUOUS
 10
50.10327
 20
64.35200
 30
 0
 11
50.10327
 21
63.44000
  0
LINE
  8
Gravur
 62
   7
 39
0.200
  6
CONTINUOUS
 10
50.34560
 20
64.14933
 30
 0
 11
50.54827
 21
64.35200
  0
LINE
  8
Gravur
 62
   7
 39
0.200
  6
CONTINUOUS
 10
50.54827
 20
64.35200
 30
 0
 11
50.54827
 21
63.44000
  0
LINE
  8
Gravur
 62
   7
 39
0.200
  6
CONTINUOUS
 10
50.79060
 20
63.37920
 30
 0
 11
51.17567
 21
64.40267
  0
LINE
  8
Gravur
 62
   7
 39
0.200
  6
CONTINUOUS
 10
51.41860
 20
64.14933
 30
 0
 11
51.62127
 21
64.35200
  0
LINE
  8
Gravur
 62
   7
 39
0.200
  6
CONTINUOUS
 10
51.62127
 20
64.35200
 30
 0
 11
51.62127
 21
63.44000
  0
ARC
  8
Gravur
 62
   7
 39
0.200
  6
CONTINUOUS
 10
52.10854
 20
64.10619
 30
 0
 40
0.26608
 50
90.37438
 51
157.00576
  0
ARC
  8
Gravur
 62
   7
 39
0.200
  6
CONTINUOUS
 10
52.10680
 20
64.13413
 30
 0
 40
0.23813
 50
-90.00000
 51
90.00000
  0
ARC
  8
Gravur
 62
   7
 39
0.200
  6
CONTINUOUS
 10
52.10680
 20
63.65787
 30
 0
 40
0.23813
 50
-90.00000
 51
90.00000
  0
ARC
  8
Gravur
 62
   7
 39
0.200
  6
CONTINUOUS
 10
52.10818
 20
63.70150
 30
 0
 40
0.28177
 50
209.76844
 51
269.71869
  0
LINE
  8
Gravur
 62
   7
 39
0.200
  6
CONTINUOUS
 10
47.79460
 20
76.84833
 30
 0
 11
47.99727
 21
77.05100
  0
LINE
  8
Gravur
 62
   7
 39
0.200
  6
CONTINUOUS
 10
47.99727
 20
77.05100
 30
 0
 11
47.99727
 21
76.13900
  0
ARC
  8
Gravur
 62
   7
 39
0.200
  6
CONTINUOUS
 10
48.50307
 20
76.43287
 30
 0
 40
0.26347
 50
0.00000
 51
180.00000
  0
LINE
  8
Gravur
 62
   7
 39
0.200
  6
CONTINUOUS
 10
48.76653
 20
76.43287
 30
 0
 11
48.76653
 21
76.38220
  0
ARC
  8
Gravur
 62
   7
 39
0.200
  6
CONTINUOUS
 10
48.50307
 20
76.38220
 30
 0
 40
0.26347
 50
-180.00000
 51
0.00000
  0
LINE
  8
Gravur
 62
   7
 39
0.200
  6
CONTINUOUS
 10
48.23960
 20
76.38220
 30
 0
 11
48.23960
 21
76.77740
  0
ARC
  8
Gravur
 62
   7
 39
0.200
  6
CONTINUOUS
 10
48.52027
 20
76.78860
 30
 0
 40
0.28089
 50
45.86651
 51
182.28449
  0
LINE
  8
Gravur
 62
   7
 39
0.200
  6
CONTINUOUS
 10
49.00960
 20
76.07920
 30
 0
 11
49.39467
 21
77.10267
  0
LINE
  8
Gravur
 62
   7
 39
0.200
  6
CONTINUOUS
 10
49.63760
 20
76.90000
 30
 0
 11
49.63760
 21
77.05200
  0
LINE
  8
Gravur
 62
   7
 39
0.200
  6
CONTINUOUS
 10
49.63760
 20
77.05200
 30
 0
 11
50.14427
 21
77.05200
  0
LINE
  8
Gravur
 62
   7
 39
0.200
  6
CONTINUOUS
 10
50.14427
 20
77.05200
 30
 0
 11
49.73893
 21
76.14000
  0
LINE
  8
Gravur
 62
   7
 39
0.200
  6
CONTINUOUS
 10
50.38660
 20
76.07920
 30
 0
 11
50.77167
 21
77.10267
  0
ARC
  8
Gravur
 62
   7
 39
0.200
  6
CONTINUOUS
 10
51.27807
 20
76.38320
 30
 0
 40
0.26347
 50
-90.00000
 51
90.00000
  0
ARC
  8
Gravur
 62
   7
 39
0.200
  6
CONTINUOUS
 10
51.27807
 20
76.38320
 30
 0
 40
0.26347
 50
90.00000
 51
270.00000
  0
ARC
  8
Gravur
 62
   7
 39
0.200
  6
CONTINUOUS
 10
51.27807
 20
76.85947
 30
 0
 40
0.21280
 50
270.00000
 51
450.00000
  0
ARC
  8
Gravur
 62
   7
 39
0.200
  6
CONTINUOUS
 10
51.27807
 20
76.85947
 30
 0
 40
0.21280
 50
90.00000
 51
270.00000
  0
ARC
  8
Gravur
 62
   7
 39
0.200
  6
CONTINUOUS
 10
48.05707
 20
89.08220
 30
 0
 40
0.26347
 50
-90.00000
 51
90.00000
  0
ARC
  8
Gravur
 62
   7
 39
0.200
  6
CONTINUOUS
 10
48.05707
 20
89.08220
 30
 0
 40
0.26347
 50
90.00000
 51
270.00000
  0
ARC
  8
Gravur
 62
   7
 39
0.200
  6
CONTINUOUS
 10
48.05707
 20
89.55847
 30
 0
 40
0.21280
 50
270.00000
 51
450.00000
  0
ARC
  8
Gravur
 62
   7
 39
0.200
  6
CONTINUOUS
 10
48.05707
 20
89.55847
 30
 0
 40
0.21280
 50
90.00000
 51
270.00000
  0
LINE
  8
Gravur
 62
   7
 39
0.200
  6
CONTINUOUS
 10
48.56360
 20
88.77820
 30
 0
 11
48.94867
 21
89.80167
  0
LINE
  8
Gravur
 62
   7
 39
0.200
  6
CONTINUOUS
 10
49.65773
 20
89.75100
 30
 0
 11
49.20173
 21
89.75100
  0
LINE
  8
Gravur
 62
   7
 39
0.200
  6
CONTINUOUS
 10
49.20173
 20
89.75100
 30
 0
 11
49.20173
 21
89.32540
  0
ARC
  8
Gravur
 62
   7
 39
0.200
  6
CONTINUOUS
 10
49.41382
 20
89.05062
 30
 0
 40
0.34711
 50
84.85750
 51
127.66291
  0
ARC
  8
Gravur
 62
   7
 39
0.200
  6
CONTINUOUS
 10
49.41727
 20
89.10440
 30
 0
 40
0.29324
 50
-44.24474
 51
84.58605
  0
ARC
  8
Gravur
 62
   7
 39
0.200
  6
CONTINUOUS
 10
49.43197
 20
89.09147
 30
 0
 40
0.27369
 50
208.56608
 51
315.54698
  0
LINE
  8
Gravur
 62
   7
 39
0.200
  6
CONTINUOUS
 10
49.94060
 20
88.77920
 30
 0
 11
50.32567
 21
89.80267
  0
LINE
  8
Gravur
 62
   7
 39
0.200
  6
CONTINUOUS
 10
51.03473
 20
89.75200
 30
 0
 11
50.57873
 21
89.75200
  0
LINE
  8
Gravur
 62
   7
 39
0.200
  6
CONTINUOUS
 10
50.57873
 20
89.75200
 30
 0
 11
50.57873
 21
89.32640
  0
ARC
  8
Gravur
 62
   7
 39
0.200
  6
CONTINUOUS
 10
50.79082
 20
89.05162
 30
 0
 40
0.34711
 50
84.85750
 51
127.66291
  0
ARC
  8
Gravur
 62
   7
 39
0.200
  6
CONTINUOUS
 10
50.79427
 20
89.10540
 30
 0
 40
0.29324
 50
-44.24474
 51
84.58605
  0
ARC
  8
Gravur
 62
   7
 39
0.200
  6
CONTINUOUS
 10
50.80897
 20
89.09247
 30
 0
 40
0.27369
 50
208.56608
 51
315.54698
  0
LINE
  8
Gravur
 62
   7
 39
0.200
  6
CONTINUOUS
 10
48.09860
 20
102.45100
 30
 0
 11
47.79460
 21
101.69100
  0
LINE
  8
Gravur
 62
   7
 39
0.200
  6
CONTINUOUS
 10
47.79460
 20
101.69100
 30
 0
 11
48.30127
 21
101.69100
  0
LINE
  8
Gravur
 62
   7
 39
0.200
  6
CONTINUOUS
 10
48.30127
 20
101.69100
 30
 0
 11
48.19993
 21
101.69100
  0
LINE
  8
Gravur
 62
   7
 39
0.200
  6
CONTINUOUS
 10
48.19993
 20
101.69100
 30
 0
 11
48.19993
 21
101.84300
  0
LINE
  8
Gravur
 62
   7
 39
0.200
  6
CONTINUOUS
 10
48.19993
 20
101.84300
 30
 0
 11
48.19993
 21
101.53900
  0
LINE
  8
Gravur
 62
   7
 39
0.200
  6
CONTINUOUS
 10
48.54360
 20
101.47820
 30
 0
 11
48.92867
 21
102.50167
  0
ARC
  8
Gravur
 62
   7
 39
0.200
  6
CONTINUOUS
 10
49.41654
 20
102.20519
 30
 0
 40
0.26608
 50
90.37438
 51
157.00576
  0
ARC
  8
Gravur
 62
   7
 39
0.200
  6
CONTINUOUS
 10
49.41480
 20
102.23313
 30
 0
 40
0.23813
 50
-90.00000
 51
90.00000
  0
ARC
  8
Gravur
 62
   7
 39
0.200
  6
CONTINUOUS
 10
49.41480
 20
101.75687
 30
 0
 40
0.23813
 50
-90.00000
 51
90.00000
  0
ARC
  8
Gravur
 62
   7
 39
0.200
  6
CONTINUOUS
 10
49.41618
 20
101.80050
 30
 0
 40
0.28177
 50
209.76844
 51
269.71869
  0
LINE
  8
Gravur
 62
   7
 39
0.200
  6
CONTINUOUS
 10
49.90060
 20
101.47820
 30
 0
 11
50.28567
 21
102.50167
  0
ARC
  8
Gravur
 62
   7
 39
0.200
  6
CONTINUOUS
 10
50.77354
 20
102.20519
 30
 0
 40
0.26608
 50
90.37438
 51
157.00576
  0
ARC
  8
Gravur
 62
   7
 39
0.200
  6
CONTINUOUS
 10
50.77180
 20
102.23313
 30
 0
 40
0.23813
 50
-90.00000
 51
90.00000
  0
ARC
  8
Gravur
 62
   7
 39
0.200
  6
CONTINUOUS
 10
50.77180
 20
101.75687
 30
 0
 40
0.23813
 50
-90.00000
 51
90.00000
  0
ARC
  8
Gravur
 62
   7
 39
0.200
  6
CONTINUOUS
 10
50.77318
 20
101.80050
 30
 0
 40
0.28177
 50
209.76844
 51
269.71869
  0
LINE
  8
Gravur
 62
   7
 39
0.200
  6
CONTINUOUS
 10
47.80473
 20
115.05980
 30
 0
 11
47.86553
 21
115.11047
  0
ARC
  8
Gravur
 62
   7
 39
0.200
  6
CONTINUOUS
 10
48.02982
 20
114.92009
 30
 0
 40
0.25146
 50
-40.79241
 51
130.79241
  0
LINE
  8
Gravur
 62
   7
 39
0.200
  6
CONTINUOUS
 10
48.22020
 20
114.75580
 30
 0
 11
47.79460
 21
114.23900
  0
LINE
  8
Gravur
 62
   7
 39
0.200
  6
CONTINUOUS
 10
47.79460
 20
114.23900
 30
 0
 11
48.30127
 21
114.23900
  0
LINE
  8
Gravur
 62
   7
 39
0.200
  6
CONTINUOUS
 10
48.54360
 20
114.17920
 30
 0
 11
48.92867
 21
115.20267
  0
LINE
  8
Gravur
 62
   7
 39
0.200
  6
CONTINUOUS
 10
49.18173
 20
115.06080
 30
 0
 11
49.24253
 21
115.11147
  0
ARC
  8
Gravur
 62
   7
 39
0.200
  6
CONTINUOUS
 10
49.40682
 20
114.92109
 30
 0
 40
0.25146
 50
-40.79241
 51
130.79241
  0
LINE
  8
Gravur
 62
   7
 39
0.200
  6
CONTINUOUS
 10
49.59720
 20
114.75680
 30
 0
 11
49.17160
 21
114.24000
  0
LINE
  8
Gravur
 62
   7
 39
0.200
  6
CONTINUOUS
 10
49.17160
 20
114.24000
 30
 0
 11
49.67827
 21
114.24000
  0
LINE
  8
Gravur
 62
   7
 39
0.200
  6
CONTINUOUS
 10
49.92060
 20
114.18020
 30
 0
 11
50.30567
 21
115.20367
  0
LINE
  8
Gravur
 62
   7
 39
0.200
  6
CONTINUOUS
 10
50.55873
 20
115.06180
 30
 0
 11
50.61953
 21
115.11247
  0
ARC
  8
Gravur
 62
   7
 39
0.200
  6
CONTINUOUS
 10
50.78382
 20
114.92209
 30
 0
 40
0.25146
 50
-40.79241
 51
130.79241
  0
LINE
  8
Gravur
 62
   7
 39
0.200
  6
CONTINUOUS
 10
50.97420
 20
114.75780
 30
 0
 11
50.54860
 21
114.24100
  0
LINE
  8
Gravur
 62
   7
 39
0.200
  6
CONTINUOUS
 10
50.54860
 20
114.24100
 30
 0
 11
51.05527
 21
114.24100
  0
CIRCLE
  8
Kontur
 62
   7
 39
0.100
  6
CONTINUOUS
 10
7.50000
 20
125.40000
 30
 0
 40
1.60000
  0
CIRCLE
  8
Kontur
 62
   7
 39
0.100
  6
CONTINUOUS
 10
7.50000
 20
3.00000
 30
 0
 40
1.60000
  0
CIRCLE
  8
Kontur
 62
   7
 39
0.100
  6
CONTINUOUS
 10
53.12000
 20
125.40000
 30
 0
 40
1.60000
  0
CIRCLE
  8
Kontur
 62
   7
 39
0.100
  6
CONTINUOUS
 10
53.12000
 20
3.00000
 30
 0
 40
1.60000
  0
CIRCLE
  8
Kontur
 62
   7
 39
0.100
  6
CONTINUOUS
 10
47.79300
 20
20.05400
 30
 0
 40
3.25000
  0
CIRCLE
  8
Kontur
 62
   7
 39
0.100
  6
CONTINUOUS
 10
47.79600
 20
32.75400
 30
 0
 40
3.25000
  0
CIRCLE
  8
Kontur
 62
   7
 39
0.100
  6
CONTINUOUS
 10
47.79600
 20
45.45400
 30
 0
 40
3.25000
  0
CIRCLE
  8
Kontur
 62
   7
 39
0.100
  6
CONTINUOUS
 10
47.79600
 20
58.15400
 30
 0
 40
3.25000
  0
CIRCLE
  8
Kontur
 62
   7
 39
0.100
  6
CONTINUOUS
 10
47.79600
 20
70.85400
 30
 0
 40
3.25000
  0
CIRCLE
  8
Kontur
 62
   7
 39
0.100
  6
CONTINUOUS
 10
47.79600
 20
83.55400
 30
 0
 40
3.25000
  0
CIRCLE
  8
Kontur
 62
   7
 39
0.100
  6
CONTINUOUS
 10
47.79600
 20
96.25400
 30
 0
 40
3.25000
  0
CIRCLE
  8
Kontur
 62
   7
 39
0.100
  6
CONTINUOUS
 10
47.79600
 20
108.95400
 30
 0
 40
3.25000
  0
CIRCLE
  8
Kontur
 62
   7
 39
0.100
  6
CONTINUOUS
 10
30.01300
 20
20.05400
 30
 0
 40
3.25000
  0
CIRCLE
  8
Kontur
 62
   7
 39
0.100
  6
CONTINUOUS
 10
30.01600
 20
32.75400
 30
 0
 40
3.25000
  0
CIRCLE
  8
Kontur
 62
   7
 39
0.100
  6
CONTINUOUS
 10
30.01600
 20
45.45400
 30
 0
 40
3.25000
  0
CIRCLE
  8
Kontur
 62
   7
 39
0.100
  6
CONTINUOUS
 10
30.01600
 20
58.15400
 30
 0
 40
3.25000
  0
CIRCLE
  8
Kontur
 62
   7
 39
0.100
  6
CONTINUOUS
 10
12.23100
 20
20.05400
 30
 0
 40
3.25000
  0
CIRCLE
  8
Kontur
 62
   7
 39
0.100
  6
CONTINUOUS
 10
12.23400
 20
32.75400
 30
 0
 40
3.25000
  0
CIRCLE
  8
Kontur
 62
   7
 39
0.100
  6
CONTINUOUS
 10
12.23400
 20
45.45400
 30
 0
 40
3.25000
  0
CIRCLE
  8
Kontur
 62
   7
 39
0.100
  6
CONTINUOUS
 10
9.48400
 20
51.19500
 30
 0
 40
1.50000
  0
CIRCLE
  8
Kontur
 62
   7
 39
0.100
  6
CONTINUOUS
 10
27.26400
 20
51.19500
 30
 0
 40
1.50000
  0
CIRCLE
  8
Kontur
 62
   7
 39
0.100
  6
CONTINUOUS
 10
45.04400
 20
51.19500
 30
 0
 40
1.50000
  0
CIRCLE
  8
Kontur
 62
   7
 39
0.100
  6
CONTINUOUS
 10
9.48400
 20
25.79500
 30
 0
 40
1.50000
  0
CIRCLE
  8
Kontur
 62
   7
 39
0.100
  6
CONTINUOUS
 10
45.04400
 20
25.79500
 30
 0
 40
1.50000
  0
CIRCLE
  8
Kontur
 62
   7
 39
0.100
  6
CONTINUOUS
 10
9.48400
 20
38.49500
 30
 0
 40
1.50000
  0
CIRCLE
  8
Kontur
 62
   7
 39
0.100
  6
CONTINUOUS
 10
27.26400
 20
38.49500
 30
 0
 40
1.50000
  0
CIRCLE
  8
Kontur
 62
   7
 39
0.100
  6
CONTINUOUS
 10
45.04400
 20
38.49500
 30
 0
 40
1.50000
  0
CIRCLE
  8
Kontur
 62
   7
 39
0.100
  6
CONTINUOUS
 10
27.26400
 20
63.89500
 30
 0
 40
1.50000
  0
CIRCLE
  8
Kontur
 62
   7
 39
0.100
  6
CONTINUOUS
 10
45.04400
 20
63.89500
 30
 0
 40
1.50000
  0
CIRCLE
  8
Kontur
 62
   7
 39
0.100
  6
CONTINUOUS
 10
45.04400
 20
76.59500
 30
 0
 40
1.50000
  0
CIRCLE
  8
Kontur
 62
   7
 39
0.100
  6
CONTINUOUS
 10
45.04400
 20
89.29500
 30
 0
 40
1.50000
  0
CIRCLE
  8
Kontur
 62
   7
 39
0.100
  6
CONTINUOUS
 10
45.04400
 20
101.99500
 30
 0
 40
1.50000
  0
CIRCLE
  8
Kontur
 62
   7
 39
0.100
  6
CONTINUOUS
 10
45.04400
 20
114.69500
 30
 0
 40
1.50000
  0
CIRCLE
  8
Kontur
 62
   7
 39
0.100
  6
CONTINUOUS
 10
11.23000
 20
109.11000
 30
 0
 40
2.75000
  0
CIRCLE
  8
Kontur
 62
   7
 39
0.100
  6
CONTINUOUS
 10
29.01000
 20
109.11100
 30
 0
 40
2.75000
  0
CIRCLE
  8
Kontur
 62
   7
 39
0.100
  6
CONTINUOUS
 10
29.01000
 20
73.36000
 30
 0
 40
2.75000
  0
CIRCLE
  8
Kontur
 62
   7
 39
0.100
  6
CONTINUOUS
 10
11.23000
 20
73.61000
 30
 0
 40
5.00000
  0
CIRCLE
  8
Kontur
 62
   7
 39
0.100
  6
CONTINUOUS
 10
11.73000
 20
93.50500
 30
 0
 40
4.00000
  0
CIRCLE
  8
Kontur
 62
   7
 39
0.100
  6
CONTINUOUS
 10
29.51400
 20
93.60500
 30
 0
 40
4.00000
  0
LINE
  8
Bezugspunkte
 62
   1
 39
0.100
  6
CONTINUOUS
 10
-0.55500
 20
0.00000
 30
 0
 11
0.55500
 21
0.00000
  0
LINE
  8
Bezugspunkte
 62
   1
 39
0.100
  6
CONTINUOUS
 10
0.00000
 20
-0.55500
 30
 0
 11
0.00000
 21
0.55500
  0
LINE
  8
Bezugspunkte
 62
   1
 39
0.100
  6
CONTINUOUS
 10
29.75500
 20
3.00000
 30
 0
 11
30.86500
 21
3.00000
  0
LINE
  8
Bezugspunkte
 62
   1
 39
0.100
  6
CONTINUOUS
 10
30.31000
 20
2.44500
 30
 0
 11
30.31000
 21
3.55500
  0
LINE
  8
Bezugspunkte
 62
   1
 39
0.100
  6
CONTINUOUS
 10
29.75500
 20
125.39500
 30
 0
 11
30.86500
 21
125.39500
  0
LINE
  8
Bezugspunkte
 62
   1
 39
0.100
  6
CONTINUOUS
 10
30.31000
 20
124.84000
 30
 0
 11
30.31000
 21
125.95000
  0
LINE
  8
Bezugspunkte
 62
   1
 39
0.100
  6
CONTINUOUS
 10
6.94500
 20
125.40000
 30
 0
 11
8.05500
 21
125.40000
  0
LINE
  8
Bezugspunkte
 62
   1
 39
0.100
  6
CONTINUOUS
 10
7.50000
 20
124.84500
 30
 0
 11
7.50000
 21
125.95500
  0
LINE
  8
Bezugspunkte
 62
   1
 39
0.100
  6
CONTINUOUS
 10
6.94500
 20
3.00000
 30
 0
 11
8.05500
 21
3.00000
  0
LINE
  8
Bezugspunkte
 62
   1
 39
0.100
  6
CONTINUOUS
 10
7.50000
 20
2.44500
 30
 0
 11
7.50000
 21
3.55500
  0
LINE
  8
Bezugspunkte
 62
   1
 39
0.100
  6
CONTINUOUS
 10
52.56500
 20
125.40000
 30
 0
 11
53.67500
 21
125.40000
  0
LINE
  8
Bezugspunkte
 62
   1
 39
0.100
  6
CONTINUOUS
 10
53.12000
 20
124.84500
 30
 0
 11
53.12000
 21
125.95500
  0
LINE
  8
Bezugspunkte
 62
   1
 39
0.100
  6
CONTINUOUS
 10
52.56500
 20
3.00000
 30
 0
 11
53.67500
 21
3.00000
  0
LINE
  8
Bezugspunkte
 62
   1
 39
0.100
  6
CONTINUOUS
 10
53.12000
 20
2.44500
 30
 0
 11
53.12000
 21
3.55500
  0
LINE
  8
Bezugspunkte
 62
   1
 39
0.100
  6
CONTINUOUS
 10
29.45900
 20
118.49500
 30
 0
 11
30.56900
 21
118.49500
  0
LINE
  8
Bezugspunkte
 62
   1
 39
0.100
  6
CONTINUOUS
 10
30.01400
 20
117.94000
 30
 0
 11
30.01400
 21
119.05000
  0
LINE
  8
Bezugspunkte
 62
   1
 39
0.100
  6
CONTINUOUS
 10
29.45900
 20
113.69500
 30
 0
 11
30.56900
 21
113.69500
  0
LINE
  8
Bezugspunkte
 62
   1
 39
0.100
  6
CONTINUOUS
 10
30.01400
 20
113.14000
 30
 0
 11
30.01400
 21
114.25000
  0
LINE
  8
Bezugspunkte
 62
   1
 39
0.100
  6
CONTINUOUS
 10
11.67900
 20
51.19500
 30
 0
 11
12.78900
 21
51.19500
  0
LINE
  8
Bezugspunkte
 62
   1
 39
0.100
  6
CONTINUOUS
 10
12.23400
 20
50.64000
 30
 0
 11
12.23400
 21
51.75000
  0
LINE
  8
Bezugspunkte
 62
   1
 39
0.100
  6
CONTINUOUS
 10
47.23800
 20
20.05400
 30
 0
 11
48.34800
 21
20.05400
  0
LINE
  8
Bezugspunkte
 62
   1
 39
0.100
  6
CONTINUOUS
 10
47.79300
 20
19.49900
 30
 0
 11
47.79300
 21
20.60900
  0
LINE
  8
Bezugspunkte
 62
   1
 39
0.100
  6
CONTINUOUS
 10
47.24100
 20
32.75400
 30
 0
 11
48.35100
 21
32.75400
  0
LINE
  8
Bezugspunkte
 62
   1
 39
0.100
  6
CONTINUOUS
 10
47.79600
 20
32.19900
 30
 0
 11
47.79600
 21
33.30900
  0
LINE
  8
Bezugspunkte
 62
   1
 39
0.100
  6
CONTINUOUS
 10
47.24100
 20
45.45400
 30
 0
 11
48.35100
 21
45.45400
  0
LINE
  8
Bezugspunkte
 62
   1
 39
0.100
  6
CONTINUOUS
 10
47.79600
 20
44.89900
 30
 0
 11
47.79600
 21
46.00900
  0
LINE
  8
Bezugspunkte
 62
   1
 39
0.100
  6
CONTINUOUS
 10
47.24100
 20
58.15400
 30
 0
 11
48.35100
 21
58.15400
  0
LINE
  8
Bezugspunkte
 62
   1
 39
0.100
  6
CONTINUOUS
 10
47.79600
 20
57.59900
 30
 0
 11
47.79600
 21
58.70900
  0
LINE
  8
Bezugspunkte
 62
   1
 39
0.100
  6
CONTINUOUS
 10
47.24100
 20
70.85400
 30
 0
 11
48.35100
 21
70.85400
  0
LINE
  8
Bezugspunkte
 62
   1
 39
0.100
  6
CONTINUOUS
 10
47.79600
 20
70.29900
 30
 0
 11
47.79600
 21
71.40900
  0
LINE
  8
Bezugspunkte
 62
   1
 39
0.100
  6
CONTINUOUS
 10
47.24100
 20
83.55400
 30
 0
 11
48.35100
 21
83.55400
  0
LINE
  8
Bezugspunkte
 62
   1
 39
0.100
  6
CONTINUOUS
 10
47.79600
 20
82.99900
 30
 0
 11
47.79600
 21
84.10900
  0
LINE
  8
Bezugspunkte
 62
   1
 39
0.100
  6
CONTINUOUS
 10
47.24100
 20
96.25400
 30
 0
 11
48.35100
 21
96.25400
  0
LINE
  8
Bezugspunkte
 62
   1
 39
0.100
  6
CONTINUOUS
 10
47.79600
 20
95.69900
 30
 0
 11
47.79600
 21
96.80900
  0
LINE
  8
Bezugspunkte
 62
   1
 39
0.100
  6
CONTINUOUS
 10
47.24100
 20
108.95400
 30
 0
 11
48.35100
 21
108.95400
  0
LINE
  8
Bezugspunkte
 62
   1
 39
0.100
  6
CONTINUOUS
 10
47.79600
 20
108.39900
 30
 0
 11
47.79600
 21
109.50900
  0
LINE
  8
Bezugspunkte
 62
   1
 39
0.100
  6
CONTINUOUS
 10
29.45800
 20
20.05400
 30
 0
 11
30.56800
 21
20.05400
  0
LINE
  8
Bezugspunkte
 62
   1
 39
0.100
  6
CONTINUOUS
 10
30.01300
 20
19.49900
 30
 0
 11
30.01300
 21
20.60900
  0
LINE
  8
Bezugspunkte
 62
   1
 39
0.100
  6
CONTINUOUS
 10
29.46100
 20
32.75400
 30
 0
 11
30.57100
 21
32.75400
  0
LINE
  8
Bezugspunkte
 62
   1
 39
0.100
  6
CONTINUOUS
 10
30.01600
 20
32.19900
 30
 0
 11
30.01600
 21
33.30900
  0
LINE
  8
Bezugspunkte
 62
   1
 39
0.100
  6
CONTINUOUS
 10
29.46100
 20
45.45400
 30
 0
 11
30.57100
 21
45.45400
  0
LINE
  8
Bezugspunkte
 62
   1
 39
0.100
  6
CONTINUOUS
 10
30.01600
 20
44.89900
 30
 0
 11
30.01600
 21
46.00900
  0
LINE
  8
Bezugspunkte
 62
   1
 39
0.100
  6
CONTINUOUS
 10
29.46100
 20
58.15400
 30
 0
 11
30.57100
 21
58.15400
  0
LINE
  8
Bezugspunkte
 62
   1
 39
0.100
  6
CONTINUOUS
 10
30.01600
 20
57.59900
 30
 0
 11
30.01600
 21
58.70900
  0
LINE
  8
Bezugspunkte
 62
   1
 39
0.100
  6
CONTINUOUS
 10
11.67600
 20
20.05400
 30
 0
 11
12.78600
 21
20.05400
  0
LINE
  8
Bezugspunkte
 62
   1
 39
0.100
  6
CONTINUOUS
 10
12.23100
 20
19.49900
 30
 0
 11
12.23100
 21
20.60900
  0
LINE
  8
Bezugspunkte
 62
   1
 39
0.100
  6
CONTINUOUS
 10
11.67900
 20
32.75400
 30
 0
 11
12.78900
 21
32.75400
  0
LINE
  8
Bezugspunkte
 62
   1
 39
0.100
  6
CONTINUOUS
 10
12.23400
 20
32.19900
 30
 0
 11
12.23400
 21
33.30900
  0
LINE
  8
Bezugspunkte
 62
   1
 39
0.100
  6
CONTINUOUS
 10
11.67900
 20
45.45400
 30
 0
 11
12.78900
 21
45.45400
  0
LINE
  8
Bezugspunkte
 62
   1
 39
0.100
  6
CONTINUOUS
 10
12.23400
 20
44.89900
 30
 0
 11
12.23400
 21
46.00900
  0
LINE
  8
Bezugspunkte
 62
   1
 39
0.100
  6
CONTINUOUS
 10
8.92900
 20
51.19500
 30
 0
 11
10.03900
 21
51.19500
  0
LINE
  8
Bezugspunkte
 62
   1
 39
0.100
  6
CONTINUOUS
 10
9.48400
 20
50.64000
 30
 0
 11
9.48400
 21
51.75000
  0
LINE
  8
Bezugspunkte
 62
   1
 39
0.100
  6
CONTINUOUS
 10
26.70900
 20
51.19500
 30
 0
 11
27.81900
 21
51.19500
  0
LINE
  8
Bezugspunkte
 62
   1
 39
0.100
  6
CONTINUOUS
 10
27.26400
 20
50.64000
 30
 0
 11
27.26400
 21
51.75000
  0
LINE
  8
Bezugspunkte
 62
   1
 39
0.100
  6
CONTINUOUS
 10
44.48900
 20
51.19500
 30
 0
 11
45.59900
 21
51.19500
  0
LINE
  8
Bezugspunkte
 62
   1
 39
0.100
  6
CONTINUOUS
 10
45.04400
 20
50.64000
 30
 0
 11
45.04400
 21
51.75000
  0
LINE
  8
Bezugspunkte
 62
   1
 39
0.100
  6
CONTINUOUS
 10
8.92900
 20
25.79500
 30
 0
 11
10.03900
 21
25.79500
  0
LINE
  8
Bezugspunkte
 62
   1
 39
0.100
  6
CONTINUOUS
 10
9.48400
 20
25.24000
 30
 0
 11
9.48400
 21
26.35000
  0
LINE
  8
Bezugspunkte
 62
   1
 39
0.100
  6
CONTINUOUS
 10
44.48900
 20
25.79500
 30
 0
 11
45.59900
 21
25.79500
  0
LINE
  8
Bezugspunkte
 62
   1
 39
0.100
  6
CONTINUOUS
 10
45.04400
 20
25.24000
 30
 0
 11
45.04400
 21
26.35000
  0
LINE
  8
Bezugspunkte
 62
   1
 39
0.100
  6
CONTINUOUS
 10
8.92900
 20
38.49500
 30
 0
 11
10.03900
 21
38.49500
  0
LINE
  8
Bezugspunkte
 62
   1
 39
0.100
  6
CONTINUOUS
 10
9.48400
 20
37.94000
 30
 0
 11
9.48400
 21
39.05000
  0
LINE
  8
Bezugspunkte
 62
   1
 39
0.100
  6
CONTINUOUS
 10
26.70900
 20
38.49500
 30
 0
 11
27.81900
 21
38.49500
  0
LINE
  8
Bezugspunkte
 62
   1
 39
0.100
  6
CONTINUOUS
 10
27.26400
 20
37.94000
 30
 0
 11
27.26400
 21
39.05000
  0
LINE
  8
Bezugspunkte
 62
   1
 39
0.100
  6
CONTINUOUS
 10
44.48900
 20
38.49500
 30
 0
 11
45.59900
 21
38.49500
  0
LINE
  8
Bezugspunkte
 62
   1
 39
0.100
  6
CONTINUOUS
 10
45.04400
 20
37.94000
 30
 0
 11
45.04400
 21
39.05000
  0
LINE
  8
Bezugspunkte
 62
   1
 39
0.100
  6
CONTINUOUS
 10
26.70900
 20
63.89500
 30
 0
 11
27.81900
 21
63.89500
  0
LINE
  8
Bezugspunkte
 62
   1
 39
0.100
  6
CONTINUOUS
 10
27.26400
 20
63.34000
 30
 0
 11
27.26400
 21
64.45000
  0
LINE
  8
Bezugspunkte
 62
   1
 39
0.100
  6
CONTINUOUS
 10
44.48900
 20
63.89500
 30
 0
 11
45.59900
 21
63.89500
  0
LINE
  8
Bezugspunkte
 62
   1
 39
0.100
  6
CONTINUOUS
 10
45.04400
 20
63.34000
 30
 0
 11
45.04400
 21
64.45000
  0
LINE
  8
Bezugspunkte
 62
   1
 39
0.100
  6
CONTINUOUS
 10
44.48900
 20
76.59500
 30
 0
 11
45.59900
 21
76.59500
  0
LINE
  8
Bezugspunkte
 62
   1
 39
0.100
  6
CONTINUOUS
 10
45.04400
 20
76.04000
 30
 0
 11
45.04400
 21
77.15000
  0
LINE
  8
Bezugspunkte
 62
   1
 39
0.100
  6
CONTINUOUS
 10
44.48900
 20
89.29500
 30
 0
 11
45.59900
 21
89.29500
  0
LINE
  8
Bezugspunkte
 62
   1
 39
0.100
  6
CONTINUOUS
 10
45.04400
 20
88.74000
 30
 0
 11
45.04400
 21
89.85000
  0
LINE
  8
Bezugspunkte
 62
   1
 39
0.100
  6
CONTINUOUS
 10
44.48900
 20
101.99500
 30
 0
 11
45.59900
 21
101.99500
  0
LINE
  8
Bezugspunkte
 62
   1
 39
0.100
  6
CONTINUOUS
 10
45.04400
 20
101.44000
 30
 0
 11
45.04400
 21
102.55000
  0
LINE
  8
Bezugspunkte
 62
   1
 39
0.100
  6
CONTINUOUS
 10
44.48900
 20
114.69500
 30
 0
 11
45.59900
 21
114.69500
  0
LINE
  8
Bezugspunkte
 62
   1
 39
0.100
  6
CONTINUOUS
 10
45.04400
 20
114.14000
 30
 0
 11
45.04400
 21
115.25000
  0
LINE
  8
Bezugspunkte
 62
   1
 39
0.100
  6
CONTINUOUS
 10
11.67900
 20
38.49500
 30
 0
 11
12.78900
 21
38.49500
  0
LINE
  8
Bezugspunkte
 62
   1
 39
0.100
  6
CONTINUOUS
 10
12.23400
 20
37.94000
 30
 0
 11
12.23400
 21
39.05000
  0
LINE
  8
Bezugspunkte
 62
   1
 39
0.100
  6
CONTINUOUS
 10
11.67900
 20
25.79500
 30
 0
 11
12.78900
 21
25.79500
  0
LINE
  8
Bezugspunkte
 62
   1
 39
0.100
  6
CONTINUOUS
 10
12.23400
 20
25.24000
 30
 0
 11
12.23400
 21
26.35000
  0
LINE
  8
Bezugspunkte
 62
   1
 39
0.100
  6
CONTINUOUS
 10
29.36000
 20
25.79500
 30
 0
 11
30.47000
 21
25.79500
  0
LINE
  8
Bezugspunkte
 62
   1
 39
0.100
  6
CONTINUOUS
 10
29.91500
 20
25.24000
 30
 0
 11
29.91500
 21
26.35000
  0
LINE
  8
Bezugspunkte
 62
   1
 39
0.100
  6
CONTINUOUS
 10
47.23900
 20
25.79500
 30
 0
 11
48.34900
 21
25.79500
  0
LINE
  8
Bezugspunkte
 62
   1
 39
0.100
  6
CONTINUOUS
 10
47.79400
 20
25.24000
 30
 0
 11
47.79400
 21
26.35000
  0
LINE
  8
Bezugspunkte
 62
   1
 39
0.100
  6
CONTINUOUS
 10
30.20400
 20
38.49600
 30
 0
 11
31.31400
 21
38.49600
  0
LINE
  8
Bezugspunkte
 62
   1
 39
0.100
  6
CONTINUOUS
 10
30.75900
 20
37.94100
 30
 0
 11
30.75900
 21
39.05100
  0
LINE
  8
Bezugspunkte
 62
   1
 39
0.100
  6
CONTINUOUS
 10
47.23900
 20
38.49500
 30
 0
 11
48.34900
 21
38.49500
  0
LINE
  8
Bezugspunkte
 62
   1
 39
0.100
  6
CONTINUOUS
 10
47.79400
 20
37.94000
 30
 0
 11
47.79400
 21
39.05000
  0
LINE
  8
Bezugspunkte
 62
   1
 39
0.100
  6
CONTINUOUS
 10
29.69700
 20
51.19500
 30
 0
 11
30.80700
 21
51.19500
  0
LINE
  8
Bezugspunkte
 62
   1
 39
0.100
  6
CONTINUOUS
 10
30.25200
 20
50.64000
 30
 0
 11
30.25200
 21
51.75000
  0
LINE
  8
Bezugspunkte
 62
   1
 39
0.100
  6
CONTINUOUS
 10
47.23900
 20
51.19500
 30
 0
 11
48.34900
 21
51.19500
  0
LINE
  8
Bezugspunkte
 62
   1
 39
0.100
  6
CONTINUOUS
 10
47.79400
 20
50.64000
 30
 0
 11
47.79400
 21
51.75000
  0
LINE
  8
Bezugspunkte
 62
   1
 39
0.100
  6
CONTINUOUS
 10
30.49700
 20
63.89500
 30
 0
 11
31.60700
 21
63.89500
  0
LINE
  8
Bezugspunkte
 62
   1
 39
0.100
  6
CONTINUOUS
 10
31.05200
 20
63.34000
 30
 0
 11
31.05200
 21
64.45000
  0
LINE
  8
Bezugspunkte
 62
   1
 39
0.100
  6
CONTINUOUS
 10
47.23900
 20
63.89500
 30
 0
 11
48.34900
 21
63.89500
  0
LINE
  8
Bezugspunkte
 62
   1
 39
0.100
  6
CONTINUOUS
 10
47.79400
 20
63.34000
 30
 0
 11
47.79400
 21
64.45000
  0
LINE
  8
Bezugspunkte
 62
   1
 39
0.100
  6
CONTINUOUS
 10
47.23900
 20
76.59500
 30
 0
 11
48.34900
 21
76.59500
  0
LINE
  8
Bezugspunkte
 62
   1
 39
0.100
  6
CONTINUOUS
 10
47.79400
 20
76.04000
 30
 0
 11
47.79400
 21
77.15000
  0
LINE
  8
Bezugspunkte
 62
   1
 39
0.100
  6
CONTINUOUS
 10
47.23900
 20
89.29500
 30
 0
 11
48.34900
 21
89.29500
  0
LINE
  8
Bezugspunkte
 62
   1
 39
0.100
  6
CONTINUOUS
 10
47.79400
 20
88.74000
 30
 0
 11
47.79400
 21
89.85000
  0
LINE
  8
Bezugspunkte
 62
   1
 39
0.100
  6
CONTINUOUS
 10
47.23900
 20
101.99500
 30
 0
 11
48.34900
 21
101.99500
  0
LINE
  8
Bezugspunkte
 62
   1
 39
0.100
  6
CONTINUOUS
 10
47.79400
 20
101.44000
 30
 0
 11
47.79400
 21
102.55000
  0
LINE
  8
Bezugspunkte
 62
   1
 39
0.100
  6
CONTINUOUS
 10
47.23900
 20
114.69500
 30
 0
 11
48.34900
 21
114.69500
  0
LINE
  8
Bezugspunkte
 62
   1
 39
0.100
  6
CONTINUOUS
 10
47.79400
 20
114.14000
 30
 0
 11
47.79400
 21
115.25000
  0
LINE
  8
Bezugspunkte
 62
   1
 39
0.100
  6
CONTINUOUS
 10
10.67500
 20
109.11000
 30
 0
 11
11.78500
 21
109.11000
  0
LINE
  8
Bezugspunkte
 62
   1
 39
0.100
  6
CONTINUOUS
 10
11.23000
 20
108.55500
 30
 0
 11
11.23000
 21
109.66500
  0
LINE
  8
Bezugspunkte
 62
   1
 39
0.100
  6
CONTINUOUS
 10
28.45500
 20
109.11100
 30
 0
 11
29.56500
 21
109.11100
  0
LINE
  8
Bezugspunkte
 62
   1
 39
0.100
  6
CONTINUOUS
 10
29.01000
 20
108.55600
 30
 0
 11
29.01000
 21
109.66600
  0
LINE
  8
Bezugspunkte
 62
   1
 39
0.100
  6
CONTINUOUS
 10
28.45500
 20
73.36000
 30
 0
 11
29.56500
 21
73.36000
  0
LINE
  8
Bezugspunkte
 62
   1
 39
0.100
  6
CONTINUOUS
 10
29.01000
 20
72.80500
 30
 0
 11
29.01000
 21
73.91500
  0
LINE
  8
Bezugspunkte
 62
   1
 39
0.100
  6
CONTINUOUS
 10
10.67500
 20
73.61000
 30
 0
 11
11.78500
 21
73.61000
  0
LINE
  8
Bezugspunkte
 62
   1
 39
0.100
  6
CONTINUOUS
 10
11.23000
 20
73.05500
 30
 0
 11
11.23000
 21
74.16500
  0
LINE
  8
Bezugspunkte
 62
   1
 39
0.100
  6
CONTINUOUS
 10
11.17500
 20
93.50500
 30
 0
 11
12.28500
 21
93.50500
  0
LINE
  8
Bezugspunkte
 62
   1
 39
0.100
  6
CONTINUOUS
 10
11.73000
 20
92.95000
 30
 0
 11
11.73000
 21
94.06000
  0
LINE
  8
Bezugspunkte
 62
   1
 39
0.100
  6
CONTINUOUS
 10
28.95900
 20
93.60500
 30
 0
 11
30.06900
 21
93.60500
  0
LINE
  8
Bezugspunkte
 62
   1
 39
0.100
  6
CONTINUOUS
 10
29.51400
 20
93.05000
 30
 0
 11
29.51400
 21
94.16000
  0
LINE
  8
Bezugspunkte
 62
   1
 39
0.100
  6
CONTINUOUS
 10
29.50300
 20
66.50000
 30
 0
 11
30.61300
 21
66.50000
  0
LINE
  8
Bezugspunkte
 62
   1
 39
0.100
  6
CONTINUOUS
 10
30.05800
 20
65.94500
 30
 0
 11
30.05800
 21
67.05500
  0
ENDSEC
  0
EOF
